<svg id="visual" viewBox="0 0 960 540" width="960" height="540" xmlns="http://www.w3.org/2000/svg" xmlns:xlink="http://www.w3.org/1999/xlink" version="1.1"><rect width="960" height="540" fill="#001829"></rect><g><g transform="translate(106 3)"><path d="M0 -12.8L10 -8L12.5 2.9L5.6 11.6L-5.6 11.6L-12.5 2.9L-10 -8Z" fill="none" stroke="#297EA6" stroke-width="1"></path></g><g transform="translate(792 492)"><path d="M0 -5L3.9 -3.1L4.9 1.1L2.2 4.5L-2.2 4.5L-4.9 1.1L-3.9 -3.1Z" fill="none" stroke="#297EA6" stroke-width="1"></path></g><g transform="translate(234 166)"><path d="M0 -11L8.6 -6.9L10.7 2.4L4.8 9.9L-4.8 9.9L-10.7 2.4L-8.6 -6.9Z" stroke="#297EA6" fill="none" stroke-width="1"></path></g><g transform="translate(645 112)"><path d="M0 -4L3.1 -2.5L3.9 0.9L1.7 3.6L-1.7 3.6L-3.9 0.9L-3.1 -2.5Z" stroke="#297EA6" fill="none" stroke-width="1"></path></g><g transform="translate(711 17)"><path d="M0 -7L5.5 -4.4L6.8 1.6L3 6.3L-3 6.3L-6.8 1.6L-5.5 -4.4Z" stroke="#297EA6" fill="none" stroke-width="1"></path></g><g transform="translate(14 273)"><path d="M0 -10L7.8 -6.2L9.7 2.2L4.3 9L-4.3 9L-9.7 2.2L-7.8 -6.2Z" stroke="#297EA6" fill="none" stroke-width="1"></path></g><g transform="translate(875 529)"><path d="M0 -3L2.3 -1.9L2.9 0.7L1.3 2.7L-1.3 2.7L-2.9 0.7L-2.3 -1.9Z" stroke="#297EA6" fill="none" stroke-width="1"></path></g><g transform="translate(693 381)"><path d="M0 -1L0.8 -0.6L1 0.2L0.4 0.9L-0.4 0.9L-1 0.2L-0.8 -0.6Z" stroke="#297EA6" fill="none" stroke-width="1"></path></g><g transform="translate(869 170)"><path d="M0 -11L8.6 -6.9L10.7 2.4L4.8 9.9L-4.8 9.9L-10.7 2.4L-8.6 -6.9Z" stroke="#297EA6" fill="none" stroke-width="1"></path></g><g transform="translate(888 278)"><path d="M0 -10L7.8 -6.2L9.7 2.2L4.3 9L-4.3 9L-9.7 2.2L-7.8 -6.2Z" stroke="#297EA6" fill="none" stroke-width="1"></path></g><g transform="translate(182 279)"><path d="M0 -8L6.3 -5L7.8 1.8L3.5 7.2L-3.5 7.2L-7.8 1.8L-6.3 -5Z" stroke="#297EA6" fill="none" stroke-width="1"></path></g><g transform="translate(259 92)"><path d="M0 -2L1.6 -1.2L1.9 0.4L0.9 1.8L-0.9 1.8L-1.9 0.4L-1.6 -1.2Z" stroke="#297EA6" fill="none" stroke-width="1"></path></g><g transform="translate(607 478)"><path d="M0 -7L5.5 -4.4L6.8 1.6L3 6.3L-3 6.3L-6.8 1.6L-5.5 -4.4Z" stroke="#297EA6" fill="none" stroke-width="1"></path></g><g transform="translate(601 149)"><path d="M0 -7L5.5 -4.4L6.8 1.6L3 6.3L-3 6.3L-6.8 1.6L-5.5 -4.4Z" stroke="#297EA6" fill="none" stroke-width="1"></path></g><g transform="translate(516 2)"><path d="M0 -11L8.6 -6.9L10.7 2.4L4.8 9.9L-4.8 9.9L-10.7 2.4L-8.6 -6.9Z" stroke="#297EA6" fill="none" stroke-width="1"></path></g><g transform="translate(241 133)"><path d="M0 -5L3.9 -3.1L4.9 1.1L2.2 4.5L-2.2 4.5L-4.9 1.1L-3.9 -3.1Z" stroke="#297EA6" fill="none" stroke-width="1"></path></g><g transform="translate(438 285)"><path d="M0 -1L0.8 -0.6L1 0.2L0.4 0.9L-0.4 0.9L-1 0.2L-0.8 -0.6Z" stroke="#297EA6" fill="none" stroke-width="1"></path></g><g transform="translate(452 454)"><path d="M0 -10L7.8 -6.2L9.7 2.2L4.3 9L-4.3 9L-9.7 2.2L-7.8 -6.2Z" stroke="#297EA6" fill="none" stroke-width="1"></path></g><g transform="translate(275 370)"><path d="M0 -5L3.9 -3.1L4.9 1.1L2.2 4.5L-2.2 4.5L-4.9 1.1L-3.9 -3.1Z" stroke="#297EA6" fill="none" stroke-width="1"></path></g><g transform="translate(100 275)"><path d="M0 -5L3.9 -3.1L4.9 1.1L2.2 4.5L-2.2 4.5L-4.9 1.1L-3.9 -3.1Z" stroke="#297EA6" fill="none" stroke-width="1"></path></g><g transform="translate(737 514)"><path d="M0 -3L2.3 -1.9L2.9 0.7L1.3 2.7L-1.3 2.7L-2.9 0.7L-2.3 -1.9Z" stroke="#297EA6" fill="none" stroke-width="1"></path></g><g transform="translate(519 443)"><path d="M0 -9L7 -5.6L8.8 2L3.9 8.1L-3.9 8.1L-8.8 2L-7 -5.6Z" stroke="#297EA6" fill="none" stroke-width="1"></path></g><g transform="translate(597 79)"><path d="M0 -5L3.9 -3.1L4.9 1.1L2.2 4.5L-2.2 4.5L-4.9 1.1L-3.9 -3.1Z" stroke="#297EA6" fill="none" stroke-width="1"></path></g><g transform="translate(445 2)"><path d="M0 -9L7 -5.6L8.8 2L3.9 8.1L-3.9 8.1L-8.8 2L-7 -5.6Z" stroke="#297EA6" fill="none" stroke-width="1"></path></g><g transform="translate(360 308)"><path d="M0 -5L3.9 -3.1L4.9 1.1L2.2 4.5L-2.2 4.5L-4.9 1.1L-3.9 -3.1Z" stroke="#297EA6" fill="none" stroke-width="1"></path></g><g transform="translate(462 98)"><path d="M0 -3L2.3 -1.9L2.9 0.7L1.3 2.7L-1.3 2.7L-2.9 0.7L-2.3 -1.9Z" stroke="#297EA6" fill="none" stroke-width="1"></path></g><g transform="translate(696 497)"><path d="M0 -8L6.3 -5L7.8 1.8L3.5 7.2L-3.5 7.2L-7.8 1.8L-6.3 -5Z" stroke="#297EA6" fill="none" stroke-width="1"></path></g><g transform="translate(481 446)"><path d="M0 -7L5.5 -4.4L6.8 1.6L3 6.3L-3 6.3L-6.8 1.6L-5.5 -4.4Z" stroke="#297EA6" fill="none" stroke-width="1"></path></g><g transform="translate(364 127)"><path d="M0 -9L7 -5.6L8.8 2L3.9 8.1L-3.9 8.1L-8.8 2L-7 -5.6Z" stroke="#297EA6" fill="none" stroke-width="1"></path></g><g transform="translate(702 124)"><path d="M0 -2L1.6 -1.2L1.9 0.4L0.9 1.8L-0.9 1.8L-1.9 0.4L-1.6 -1.2Z" stroke="#297EA6" fill="none" stroke-width="1"></path></g><g transform="translate(738 225)"><path d="M0 -5L3.9 -3.1L4.9 1.1L2.2 4.5L-2.2 4.5L-4.9 1.1L-3.9 -3.1Z" stroke="#297EA6" fill="none" stroke-width="1"></path></g><g transform="translate(817 44)"><path d="M0 -7L5.5 -4.4L6.8 1.6L3 6.3L-3 6.3L-6.8 1.6L-5.5 -4.4Z" stroke="#297EA6" fill="none" stroke-width="1"></path></g><g transform="translate(190 212)"><path d="M0 -5L3.9 -3.1L4.9 1.1L2.2 4.5L-2.2 4.5L-4.9 1.1L-3.9 -3.1Z" stroke="#297EA6" fill="none" stroke-width="1"></path></g><g transform="translate(416 230)"><path d="M0 -11L8.6 -6.9L10.7 2.4L4.8 9.9L-4.8 9.9L-10.7 2.4L-8.6 -6.9Z" stroke="#297EA6" fill="none" stroke-width="1"></path></g><g transform="translate(669 153)"><path d="M0 -3L2.3 -1.9L2.9 0.7L1.3 2.7L-1.3 2.7L-2.9 0.7L-2.3 -1.9Z" stroke="#297EA6" fill="none" stroke-width="1"></path></g><g transform="translate(837 103)"><path d="M0 -5L3.9 -3.1L4.9 1.1L2.2 4.5L-2.2 4.5L-4.9 1.1L-3.9 -3.1Z" stroke="#297EA6" fill="none" stroke-width="1"></path></g><g transform="translate(957 44)"><path d="M0 -8L6.3 -5L7.8 1.8L3.5 7.2L-3.5 7.2L-7.8 1.8L-6.3 -5Z" stroke="#297EA6" fill="none" stroke-width="1"></path></g><g transform="translate(913 334)"><path d="M0 -10L7.8 -6.2L9.7 2.2L4.3 9L-4.3 9L-9.7 2.2L-7.8 -6.2Z" stroke="#297EA6" fill="none" stroke-width="1"></path></g><g transform="translate(900 94)"><path d="M0 -4L3.1 -2.5L3.9 0.9L1.7 3.6L-1.7 3.6L-3.9 0.9L-3.1 -2.5Z" stroke="#297EA6" fill="none" stroke-width="1"></path></g><g transform="translate(190 254)"><path d="M0 -10L7.8 -6.2L9.7 2.2L4.3 9L-4.3 9L-9.7 2.2L-7.8 -6.2Z" stroke="#297EA6" fill="none" stroke-width="1"></path></g><g transform="translate(174 472)"><path d="M0 -7L5.5 -4.4L6.8 1.6L3 6.3L-3 6.3L-6.8 1.6L-5.5 -4.4Z" stroke="#297EA6" fill="none" stroke-width="1"></path></g><g transform="translate(378 204)"><path d="M0 -1L0.8 -0.6L1 0.2L0.4 0.9L-0.4 0.9L-1 0.2L-0.8 -0.6Z" stroke="#297EA6" fill="none" stroke-width="1"></path></g><g transform="translate(692 97)"><path d="M0 -5L3.9 -3.1L4.9 1.1L2.2 4.5L-2.2 4.5L-4.9 1.1L-3.9 -3.1Z" stroke="#297EA6" fill="none" stroke-width="1"></path></g><g transform="translate(560 347)"><path d="M0 -2L1.6 -1.2L1.9 0.4L0.9 1.8L-0.9 1.8L-1.9 0.4L-1.6 -1.2Z" stroke="#297EA6" fill="none" stroke-width="1"></path></g><g transform="translate(731 107)"><path d="M0 -4L3.1 -2.5L3.9 0.9L1.7 3.6L-1.7 3.6L-3.9 0.9L-3.1 -2.5Z" stroke="#297EA6" fill="none" stroke-width="1"></path></g><g transform="translate(11 144)"><path d="M0 -9L7 -5.6L8.8 2L3.9 8.1L-3.9 8.1L-8.8 2L-7 -5.6Z" stroke="#297EA6" fill="none" stroke-width="1"></path></g><g transform="translate(320 184)"><path d="M0 -10L7.8 -6.2L9.7 2.2L4.3 9L-4.3 9L-9.7 2.2L-7.8 -6.2Z" stroke="#297EA6" fill="none" stroke-width="1"></path></g><g transform="translate(775 273)"><path d="M0 -11L8.6 -6.9L10.7 2.4L4.8 9.9L-4.8 9.9L-10.7 2.4L-8.6 -6.9Z" stroke="#297EA6" fill="none" stroke-width="1"></path></g><g transform="translate(461 142)"><path d="M0 -3L2.3 -1.9L2.9 0.7L1.3 2.7L-1.3 2.7L-2.9 0.7L-2.3 -1.9Z" stroke="#297EA6" fill="none" stroke-width="1"></path></g><g transform="translate(842 288)"><path d="M0 -7L5.5 -4.4L6.8 1.6L3 6.3L-3 6.3L-6.8 1.6L-5.5 -4.4Z" stroke="#297EA6" fill="none" stroke-width="1"></path></g><g transform="translate(179 136)"><path d="M0 -1L0.8 -0.6L1 0.2L0.4 0.9L-0.4 0.9L-1 0.2L-0.8 -0.6Z" stroke="#297EA6" fill="none" stroke-width="1"></path></g><g transform="translate(247 313)"><path d="M0 -4L3.1 -2.5L3.9 0.9L1.7 3.6L-1.7 3.6L-3.9 0.9L-3.1 -2.5Z" stroke="#297EA6" fill="none" stroke-width="1"></path></g><g transform="translate(668 37)"><path d="M0 -10L7.8 -6.2L9.7 2.2L4.3 9L-4.3 9L-9.7 2.2L-7.8 -6.2Z" stroke="#297EA6" fill="none" stroke-width="1"></path></g><g transform="translate(625 415)"><path d="M0 -6L4.7 -3.7L5.8 1.3L2.6 5.4L-2.6 5.4L-5.8 1.3L-4.7 -3.7Z" stroke="#297EA6" fill="none" stroke-width="1"></path></g><g transform="translate(57 221)"><path d="M0 -1L0.8 -0.6L1 0.2L0.4 0.9L-0.4 0.9L-1 0.2L-0.8 -0.6Z" stroke="#297EA6" fill="none" stroke-width="1"></path></g><g transform="translate(175 25)"><path d="M0 -7L5.5 -4.4L6.8 1.6L3 6.3L-3 6.3L-6.8 1.6L-5.5 -4.4Z" stroke="#297EA6" fill="none" stroke-width="1"></path></g><g transform="translate(868 230)"><path d="M0 -6L4.7 -3.7L5.8 1.3L2.6 5.4L-2.6 5.4L-5.8 1.3L-4.7 -3.7Z" stroke="#297EA6" fill="none" stroke-width="1"></path></g><g transform="translate(360 395)"><path d="M0 -8L6.3 -5L7.8 1.8L3.5 7.2L-3.5 7.2L-7.8 1.8L-6.3 -5Z" stroke="#297EA6" fill="none" stroke-width="1"></path></g><g transform="translate(579 441)"><path d="M0 -10L7.8 -6.2L9.7 2.2L4.3 9L-4.3 9L-9.7 2.2L-7.8 -6.2Z" stroke="#297EA6" fill="none" stroke-width="1"></path></g><g transform="translate(100 78)"><path d="M0 -3L2.3 -1.9L2.9 0.7L1.3 2.7L-1.3 2.7L-2.9 0.7L-2.3 -1.9Z" stroke="#297EA6" fill="none" stroke-width="1"></path></g><g transform="translate(754 247)"><path d="M0 -11L8.6 -6.9L10.7 2.4L4.8 9.9L-4.8 9.9L-10.7 2.4L-8.6 -6.9Z" stroke="#297EA6" fill="none" stroke-width="1"></path></g><g transform="translate(285 68)"><path d="M0 -7L5.5 -4.4L6.8 1.6L3 6.3L-3 6.3L-6.8 1.6L-5.5 -4.4Z" stroke="#297EA6" fill="none" stroke-width="1"></path></g><g transform="translate(214 390)"><path d="M0 -11L8.6 -6.9L10.7 2.4L4.8 9.9L-4.8 9.9L-10.7 2.4L-8.6 -6.9Z" stroke="#297EA6" fill="none" stroke-width="1"></path></g><g transform="translate(915 386)"><path d="M0 -3L2.3 -1.9L2.9 0.7L1.3 2.7L-1.3 2.7L-2.9 0.7L-2.3 -1.9Z" stroke="#297EA6" fill="none" stroke-width="1"></path></g><g transform="translate(292 156)"><path d="M0 -8L6.3 -5L7.8 1.8L3.5 7.2L-3.5 7.2L-7.8 1.8L-6.3 -5Z" stroke="#297EA6" fill="none" stroke-width="1"></path></g><g transform="translate(554 393)"><path d="M0 -8L6.3 -5L7.8 1.8L3.5 7.2L-3.5 7.2L-7.8 1.8L-6.3 -5Z" stroke="#297EA6" fill="none" stroke-width="1"></path></g><g transform="translate(172 175)"><path d="M0 -3L2.3 -1.9L2.9 0.7L1.3 2.7L-1.3 2.7L-2.9 0.7L-2.3 -1.9Z" stroke="#297EA6" fill="none" stroke-width="1"></path></g><g transform="translate(163 506)"><path d="M0 -6L4.7 -3.7L5.8 1.3L2.6 5.4L-2.6 5.4L-5.8 1.3L-4.7 -3.7Z" stroke="#297EA6" fill="none" stroke-width="1"></path></g><g transform="translate(611 247)"><path d="M0 -11L8.6 -6.9L10.7 2.4L4.8 9.9L-4.8 9.9L-10.7 2.4L-8.6 -6.9Z" stroke="#297EA6" fill="none" stroke-width="1"></path></g><g transform="translate(386 16)"><path d="M0 -10L7.8 -6.2L9.7 2.2L4.3 9L-4.3 9L-9.7 2.2L-7.8 -6.2Z" stroke="#297EA6" fill="none" stroke-width="1"></path></g><g transform="translate(541 237)"><path d="M0 -1L0.8 -0.6L1 0.2L0.4 0.9L-0.4 0.9L-1 0.2L-0.8 -0.6Z" stroke="#297EA6" fill="none" stroke-width="1"></path></g><g transform="translate(381 242)"><path d="M0 -2L1.6 -1.2L1.9 0.4L0.9 1.8L-0.9 1.8L-1.9 0.4L-1.6 -1.2Z" stroke="#297EA6" fill="none" stroke-width="1"></path></g><g transform="translate(58 102)"><path d="M0 -10L7.8 -6.2L9.7 2.2L4.3 9L-4.3 9L-9.7 2.2L-7.8 -6.2Z" stroke="#297EA6" fill="none" stroke-width="1"></path></g><g transform="translate(768 194)"><path d="M0 -6L4.7 -3.7L5.8 1.3L2.6 5.4L-2.6 5.4L-5.8 1.3L-4.7 -3.7Z" stroke="#297EA6" fill="none" stroke-width="1"></path></g><g transform="translate(387 267)"><path d="M0 -4L3.1 -2.5L3.9 0.9L1.7 3.6L-1.7 3.6L-3.9 0.9L-3.1 -2.5Z" stroke="#297EA6" fill="none" stroke-width="1"></path></g><g transform="translate(663 473)"><path d="M0 -3L2.3 -1.9L2.9 0.7L1.3 2.7L-1.3 2.7L-2.9 0.7L-2.3 -1.9Z" stroke="#297EA6" fill="none" stroke-width="1"></path></g><g transform="translate(262 476)"><path d="M0 -6L4.7 -3.7L5.8 1.3L2.6 5.4L-2.6 5.4L-5.8 1.3L-4.7 -3.7Z" stroke="#297EA6" fill="none" stroke-width="1"></path></g><g transform="translate(583 8)"><path d="M0 -8L6.3 -5L7.8 1.8L3.5 7.2L-3.5 7.2L-7.8 1.8L-6.3 -5Z" stroke="#297EA6" fill="none" stroke-width="1"></path></g><g transform="translate(484 130)"><path d="M0 -4L3.1 -2.5L3.9 0.9L1.7 3.6L-1.7 3.6L-3.9 0.9L-3.1 -2.5Z" stroke="#297EA6" fill="none" stroke-width="1"></path></g><g transform="translate(135 509)"><path d="M0 -11L8.6 -6.9L10.7 2.4L4.8 9.9L-4.8 9.9L-10.7 2.4L-8.6 -6.9Z" stroke="#297EA6" fill="none" stroke-width="1"></path></g><g transform="translate(685 415)"><path d="M0 -2L1.6 -1.2L1.9 0.4L0.9 1.8L-0.9 1.8L-1.9 0.4L-1.6 -1.2Z" stroke="#297EA6" fill="none" stroke-width="1"></path></g><g transform="translate(151 370)"><path d="M0 -3L2.3 -1.9L2.9 0.7L1.3 2.7L-1.3 2.7L-2.9 0.7L-2.3 -1.9Z" stroke="#297EA6" fill="none" stroke-width="1"></path></g><g transform="translate(737 135)"><path d="M0 -11L8.6 -6.9L10.7 2.4L4.8 9.9L-4.8 9.9L-10.7 2.4L-8.6 -6.9Z" stroke="#297EA6" fill="none" stroke-width="1"></path></g><g transform="translate(888 135)"><path d="M0 -7L5.5 -4.4L6.8 1.6L3 6.3L-3 6.3L-6.8 1.6L-5.5 -4.4Z" stroke="#297EA6" fill="none" stroke-width="1"></path></g><g transform="translate(93 512)"><path d="M0 -3L2.3 -1.9L2.9 0.7L1.3 2.7L-1.3 2.7L-2.9 0.7L-2.3 -1.9Z" stroke="#297EA6" fill="none" stroke-width="1"></path></g><g transform="translate(497 182)"><path d="M0 -5L3.9 -3.1L4.9 1.1L2.2 4.5L-2.2 4.5L-4.9 1.1L-3.9 -3.1Z" stroke="#297EA6" fill="none" stroke-width="1"></path></g><g transform="translate(45 459)"><path d="M0 -8L6.3 -5L7.8 1.8L3.5 7.2L-3.5 7.2L-7.8 1.8L-6.3 -5Z" stroke="#297EA6" fill="none" stroke-width="1"></path></g><g transform="translate(865 47)"><path d="M0 -10L7.8 -6.2L9.7 2.2L4.3 9L-4.3 9L-9.7 2.2L-7.8 -6.2Z" stroke="#297EA6" fill="none" stroke-width="1"></path></g><g transform="translate(818 74)"><path d="M0 -3L2.3 -1.9L2.9 0.7L1.3 2.7L-1.3 2.7L-2.9 0.7L-2.3 -1.9Z" stroke="#297EA6" fill="none" stroke-width="1"></path></g><g transform="translate(55 371)"><path d="M0 -5L3.9 -3.1L4.9 1.1L2.2 4.5L-2.2 4.5L-4.9 1.1L-3.9 -3.1Z" stroke="#297EA6" fill="none" stroke-width="1"></path></g><g transform="translate(606 121)"><path d="M0 -1L0.8 -0.6L1 0.2L0.4 0.9L-0.4 0.9L-1 0.2L-0.8 -0.6Z" stroke="#297EA6" fill="none" stroke-width="1"></path></g><g transform="translate(522 311)"><path d="M0 -9L7 -5.6L8.8 2L3.9 8.1L-3.9 8.1L-8.8 2L-7 -5.6Z" stroke="#297EA6" fill="none" stroke-width="1"></path></g><g transform="translate(671 7)"><path d="M0 -10L7.8 -6.2L9.7 2.2L4.3 9L-4.3 9L-9.7 2.2L-7.8 -6.2Z" stroke="#297EA6" fill="none" stroke-width="1"></path></g><g transform="translate(327 150)"><path d="M0 -10L7.8 -6.2L9.7 2.2L4.3 9L-4.3 9L-9.7 2.2L-7.8 -6.2Z" stroke="#297EA6" fill="none" stroke-width="1"></path></g><g transform="translate(41 349)"><path d="M0 -5L3.9 -3.1L4.9 1.1L2.2 4.5L-2.2 4.5L-4.9 1.1L-3.9 -3.1Z" stroke="#297EA6" fill="none" stroke-width="1"></path></g><g transform="translate(430 137)"><path d="M0 -8L6.3 -5L7.8 1.8L3.5 7.2L-3.5 7.2L-7.8 1.8L-6.3 -5Z" stroke="#297EA6" fill="none" stroke-width="1"></path></g><g transform="translate(546 302)"><path d="M0 -6L4.7 -3.7L5.8 1.3L2.6 5.4L-2.6 5.4L-5.8 1.3L-4.7 -3.7Z" stroke="#297EA6" fill="none" stroke-width="1"></path></g><g transform="translate(13 455)"><path d="M0 -5L3.9 -3.1L4.9 1.1L2.2 4.5L-2.2 4.5L-4.9 1.1L-3.9 -3.1Z" stroke="#297EA6" fill="none" stroke-width="1"></path></g><g transform="translate(240 13)"><path d="M0 -6L4.7 -3.7L5.8 1.3L2.6 5.4L-2.6 5.4L-5.8 1.3L-4.7 -3.7Z" stroke="#297EA6" fill="none" stroke-width="1"></path></g><g transform="translate(464 336)"><path d="M0 -3L2.3 -1.9L2.9 0.7L1.3 2.7L-1.3 2.7L-2.9 0.7L-2.3 -1.9Z" stroke="#297EA6" fill="none" stroke-width="1"></path></g><g transform="translate(86 378)"><path d="M0 -1L0.8 -0.6L1 0.2L0.4 0.9L-0.4 0.9L-1 0.2L-0.8 -0.6Z" stroke="#297EA6" fill="none" stroke-width="1"></path></g><g transform="translate(448 531)"><path d="M0 -5L3.9 -3.1L4.9 1.1L2.2 4.5L-2.2 4.5L-4.9 1.1L-3.9 -3.1Z" stroke="#297EA6" fill="none" stroke-width="1"></path></g><g transform="translate(376 452)"><path d="M0 -5L3.9 -3.1L4.9 1.1L2.2 4.5L-2.2 4.5L-4.9 1.1L-3.9 -3.1Z" stroke="#297EA6" fill="none" stroke-width="1"></path></g><g transform="translate(540 78)"><path d="M0 -1L0.8 -0.6L1 0.2L0.4 0.9L-0.4 0.9L-1 0.2L-0.8 -0.6Z" stroke="#297EA6" fill="none" stroke-width="1"></path></g><g transform="translate(939 439)"><path d="M0 -1L0.8 -0.6L1 0.2L0.4 0.9L-0.4 0.9L-1 0.2L-0.8 -0.6Z" stroke="#297EA6" fill="none" stroke-width="1"></path></g><g transform="translate(69 27)"><path d="M0 -7L5.5 -4.4L6.8 1.6L3 6.3L-3 6.3L-6.8 1.6L-5.5 -4.4Z" stroke="#297EA6" fill="none" stroke-width="1"></path></g><g transform="translate(277 431)"><path d="M0 -6L4.7 -3.7L5.8 1.3L2.6 5.4L-2.6 5.4L-5.8 1.3L-4.7 -3.7Z" stroke="#297EA6" fill="none" stroke-width="1"></path></g><g transform="translate(246 252)"><path d="M0 -11L8.6 -6.9L10.7 2.4L4.8 9.9L-4.8 9.9L-10.7 2.4L-8.6 -6.9Z" stroke="#297EA6" fill="none" stroke-width="1"></path></g><g transform="translate(671 225)"><path d="M0 -3L2.3 -1.9L2.9 0.7L1.3 2.7L-1.3 2.7L-2.9 0.7L-2.3 -1.9Z" stroke="#297EA6" fill="none" stroke-width="1"></path></g><g transform="translate(8 308)"><path d="M0 -7L5.5 -4.4L6.8 1.6L3 6.3L-3 6.3L-6.8 1.6L-5.5 -4.4Z" stroke="#297EA6" fill="none" stroke-width="1"></path></g><g transform="translate(213 97)"><path d="M0 -4L3.1 -2.5L3.9 0.9L1.7 3.6L-1.7 3.6L-3.9 0.9L-3.1 -2.5Z" stroke="#297EA6" fill="none" stroke-width="1"></path></g><g transform="translate(140 421)"><path d="M0 -5L3.9 -3.1L4.9 1.1L2.2 4.5L-2.2 4.5L-4.9 1.1L-3.9 -3.1Z" stroke="#297EA6" fill="none" stroke-width="1"></path></g><g transform="translate(903 166)"><path d="M0 -5L3.9 -3.1L4.9 1.1L2.2 4.5L-2.2 4.5L-4.9 1.1L-3.9 -3.1Z" stroke="#297EA6" fill="none" stroke-width="1"></path></g><g transform="translate(70 248)"><path d="M0 -7L5.5 -4.4L6.8 1.6L3 6.3L-3 6.3L-6.8 1.6L-5.5 -4.4Z" stroke="#297EA6" fill="none" stroke-width="1"></path></g><g transform="translate(390 532)"><path d="M0 -3L2.3 -1.9L2.9 0.7L1.3 2.7L-1.3 2.7L-2.9 0.7L-2.3 -1.9Z" stroke="#297EA6" fill="none" stroke-width="1"></path></g><g transform="translate(407 173)"><path d="M0 -8L6.3 -5L7.8 1.8L3.5 7.2L-3.5 7.2L-7.8 1.8L-6.3 -5Z" stroke="#297EA6" fill="none" stroke-width="1"></path></g><g transform="translate(283 206)"><path d="M0 -11L8.6 -6.9L10.7 2.4L4.8 9.9L-4.8 9.9L-10.7 2.4L-8.6 -6.9Z" stroke="#297EA6" fill="none" stroke-width="1"></path></g><g transform="translate(358 177)"><path d="M0 -6L4.7 -3.7L5.8 1.3L2.6 5.4L-2.6 5.4L-5.8 1.3L-4.7 -3.7Z" stroke="#297EA6" fill="none" stroke-width="1"></path></g><g transform="translate(126 71)"><path d="M0 -9L7 -5.6L8.8 2L3.9 8.1L-3.9 8.1L-8.8 2L-7 -5.6Z" stroke="#297EA6" fill="none" stroke-width="1"></path></g><g transform="translate(171 346)"><path d="M0 -5L3.9 -3.1L4.9 1.1L2.2 4.5L-2.2 4.5L-4.9 1.1L-3.9 -3.1Z" stroke="#297EA6" fill="none" stroke-width="1"></path></g><g transform="translate(639 83)"><path d="M0 -9L7 -5.6L8.8 2L3.9 8.1L-3.9 8.1L-8.8 2L-7 -5.6Z" stroke="#297EA6" fill="none" stroke-width="1"></path></g><g transform="translate(361 485)"><path d="M0 -8L6.3 -5L7.8 1.8L3.5 7.2L-3.5 7.2L-7.8 1.8L-6.3 -5Z" stroke="#297EA6" fill="none" stroke-width="1"></path></g><g transform="translate(779 362)"><path d="M0 -3L2.3 -1.9L2.9 0.7L1.3 2.7L-1.3 2.7L-2.9 0.7L-2.3 -1.9Z" stroke="#297EA6" fill="none" stroke-width="1"></path></g><g transform="translate(552 192)"><path d="M0 -3L2.3 -1.9L2.9 0.7L1.3 2.7L-1.3 2.7L-2.9 0.7L-2.3 -1.9Z" stroke="#297EA6" fill="none" stroke-width="1"></path></g><g transform="translate(511 146)"><path d="M0 -3L2.3 -1.9L2.9 0.7L1.3 2.7L-1.3 2.7L-2.9 0.7L-2.3 -1.9Z" stroke="#297EA6" fill="none" stroke-width="1"></path></g><g transform="translate(315 83)"><path d="M0 -6L4.7 -3.7L5.8 1.3L2.6 5.4L-2.6 5.4L-5.8 1.3L-4.7 -3.7Z" stroke="#297EA6" fill="none" stroke-width="1"></path></g><g transform="translate(409 404)"><path d="M0 -4L3.1 -2.5L3.9 0.9L1.7 3.6L-1.7 3.6L-3.9 0.9L-3.1 -2.5Z" stroke="#297EA6" fill="none" stroke-width="1"></path></g><g transform="translate(781 451)"><path d="M0 -10L7.8 -6.2L9.7 2.2L4.3 9L-4.3 9L-9.7 2.2L-7.8 -6.2Z" stroke="#297EA6" fill="none" stroke-width="1"></path></g><g transform="translate(773 529)"><path d="M0 -1L0.8 -0.6L1 0.2L0.4 0.9L-0.4 0.9L-1 0.2L-0.8 -0.6Z" stroke="#297EA6" fill="none" stroke-width="1"></path></g><g transform="translate(628 214)"><path d="M0 -10L7.8 -6.2L9.7 2.2L4.3 9L-4.3 9L-9.7 2.2L-7.8 -6.2Z" stroke="#297EA6" fill="none" stroke-width="1"></path></g><g transform="translate(231 506)"><path d="M0 -8L6.3 -5L7.8 1.8L3.5 7.2L-3.5 7.2L-7.8 1.8L-6.3 -5Z" stroke="#297EA6" fill="none" stroke-width="1"></path></g><g transform="translate(212 134)"><path d="M0 -10L7.8 -6.2L9.7 2.2L4.3 9L-4.3 9L-9.7 2.2L-7.8 -6.2Z" stroke="#297EA6" fill="none" stroke-width="1"></path></g><g transform="translate(243 225)"><path d="M0 -7L5.5 -4.4L6.8 1.6L3 6.3L-3 6.3L-6.8 1.6L-5.5 -4.4Z" stroke="#297EA6" fill="none" stroke-width="1"></path></g><g transform="translate(510 247)"><path d="M0 -10L7.8 -6.2L9.7 2.2L4.3 9L-4.3 9L-9.7 2.2L-7.8 -6.2Z" stroke="#297EA6" fill="none" stroke-width="1"></path></g><g transform="translate(902 57)"><path d="M0 -4L3.1 -2.5L3.9 0.9L1.7 3.6L-1.7 3.6L-3.9 0.9L-3.1 -2.5Z" stroke="#297EA6" fill="none" stroke-width="1"></path></g><g transform="translate(847 356)"><path d="M0 -5L3.9 -3.1L4.9 1.1L2.2 4.5L-2.2 4.5L-4.9 1.1L-3.9 -3.1Z" stroke="#297EA6" fill="none" stroke-width="1"></path></g><g transform="translate(120 135)"><path d="M0 -4L3.1 -2.5L3.9 0.9L1.7 3.6L-1.7 3.6L-3.9 0.9L-3.1 -2.5Z" stroke="#297EA6" fill="none" stroke-width="1"></path></g><g transform="translate(48 157)"><path d="M0 -6L4.7 -3.7L5.8 1.3L2.6 5.4L-2.6 5.4L-5.8 1.3L-4.7 -3.7Z" stroke="#297EA6" fill="none" stroke-width="1"></path></g><g transform="translate(872 503)"><path d="M0 -4L3.1 -2.5L3.9 0.9L1.7 3.6L-1.7 3.6L-3.9 0.9L-3.1 -2.5Z" stroke="#297EA6" fill="none" stroke-width="1"></path></g><g transform="translate(48 298)"><path d="M0 -9L7 -5.6L8.8 2L3.9 8.1L-3.9 8.1L-8.8 2L-7 -5.6Z" stroke="#297EA6" fill="none" stroke-width="1"></path></g><g transform="translate(102 34)"><path d="M0 -9L7 -5.6L8.8 2L3.9 8.1L-3.9 8.1L-8.8 2L-7 -5.6Z" stroke="#297EA6" fill="none" stroke-width="1"></path></g><g transform="translate(332 260)"><path d="M0 -3L2.3 -1.9L2.9 0.7L1.3 2.7L-1.3 2.7L-2.9 0.7L-2.3 -1.9Z" stroke="#297EA6" fill="none" stroke-width="1"></path></g><g transform="translate(294 401)"><path d="M0 -8L6.3 -5L7.8 1.8L3.5 7.2L-3.5 7.2L-7.8 1.8L-6.3 -5Z" stroke="#297EA6" fill="none" stroke-width="1"></path></g><g transform="translate(568 315)"><path d="M0 -6L4.7 -3.7L5.8 1.3L2.6 5.4L-2.6 5.4L-5.8 1.3L-4.7 -3.7Z" stroke="#297EA6" fill="none" stroke-width="1"></path></g><g transform="translate(924 242)"><path d="M0 -2L1.6 -1.2L1.9 0.4L0.9 1.8L-0.9 1.8L-1.9 0.4L-1.6 -1.2Z" stroke="#297EA6" fill="none" stroke-width="1"></path></g><g transform="translate(501 217)"><path d="M0 -5L3.9 -3.1L4.9 1.1L2.2 4.5L-2.2 4.5L-4.9 1.1L-3.9 -3.1Z" stroke="#297EA6" fill="none" stroke-width="1"></path></g><g transform="translate(607 319)"><path d="M0 -2L1.6 -1.2L1.9 0.4L0.9 1.8L-0.9 1.8L-1.9 0.4L-1.6 -1.2Z" stroke="#297EA6" fill="none" stroke-width="1"></path></g><g transform="translate(840 257)"><path d="M0 -6L4.7 -3.7L5.8 1.3L2.6 5.4L-2.6 5.4L-5.8 1.3L-4.7 -3.7Z" stroke="#297EA6" fill="none" stroke-width="1"></path></g><g transform="translate(761 400)"><path d="M0 -2L1.6 -1.2L1.9 0.4L0.9 1.8L-0.9 1.8L-1.9 0.4L-1.6 -1.2Z" stroke="#297EA6" fill="none" stroke-width="1"></path></g><g transform="translate(956 136)"><path d="M0 -6L4.7 -3.7L5.8 1.3L2.6 5.4L-2.6 5.4L-5.8 1.3L-4.7 -3.7Z" stroke="#297EA6" fill="none" stroke-width="1"></path></g><g transform="translate(537 506)"><path d="M0 -5L3.9 -3.1L4.9 1.1L2.2 4.5L-2.2 4.5L-4.9 1.1L-3.9 -3.1Z" stroke="#297EA6" fill="none" stroke-width="1"></path></g><g transform="translate(84 326)"><path d="M0 -4L3.1 -2.5L3.9 0.9L1.7 3.6L-1.7 3.6L-3.9 0.9L-3.1 -2.5Z" stroke="#297EA6" fill="none" stroke-width="1"></path></g><g transform="translate(759 77)"><path d="M0 -4L3.1 -2.5L3.9 0.9L1.7 3.6L-1.7 3.6L-3.9 0.9L-3.1 -2.5Z" stroke="#297EA6" fill="none" stroke-width="1"></path></g><g transform="translate(898 456)"><path d="M0 -3L2.3 -1.9L2.9 0.7L1.3 2.7L-1.3 2.7L-2.9 0.7L-2.3 -1.9Z" stroke="#297EA6" fill="none" stroke-width="1"></path></g><g transform="translate(310 443)"><path d="M0 -9L7 -5.6L8.8 2L3.9 8.1L-3.9 8.1L-8.8 2L-7 -5.6Z" stroke="#297EA6" fill="none" stroke-width="1"></path></g><g transform="translate(240 59)"><path d="M0 -2L1.6 -1.2L1.9 0.4L0.9 1.8L-0.9 1.8L-1.9 0.4L-1.6 -1.2Z" stroke="#297EA6" fill="none" stroke-width="1"></path></g><g transform="translate(23 57)"><path d="M0 -6L4.7 -3.7L5.8 1.3L2.6 5.4L-2.6 5.4L-5.8 1.3L-4.7 -3.7Z" stroke="#297EA6" fill="none" stroke-width="1"></path></g><g transform="translate(790 227)"><path d="M0 -6L4.7 -3.7L5.8 1.3L2.6 5.4L-2.6 5.4L-5.8 1.3L-4.7 -3.7Z" stroke="#297EA6" fill="none" stroke-width="1"></path></g><g transform="translate(19 176)"><path d="M0 -10L7.8 -6.2L9.7 2.2L4.3 9L-4.3 9L-9.7 2.2L-7.8 -6.2Z" stroke="#297EA6" fill="none" stroke-width="1"></path></g><g transform="translate(824 340)"><path d="M0 -6L4.7 -3.7L5.8 1.3L2.6 5.4L-2.6 5.4L-5.8 1.3L-4.7 -3.7Z" stroke="#297EA6" fill="none" stroke-width="1"></path></g><g transform="translate(425 65)"><path d="M0 -5L3.9 -3.1L4.9 1.1L2.2 4.5L-2.2 4.5L-4.9 1.1L-3.9 -3.1Z" stroke="#297EA6" fill="none" stroke-width="1"></path></g><g transform="translate(631 39)"><path d="M0 -3L2.3 -1.9L2.9 0.7L1.3 2.7L-1.3 2.7L-2.9 0.7L-2.3 -1.9Z" stroke="#297EA6" fill="none" stroke-width="1"></path></g><g transform="translate(950 232)"><path d="M0 -6L4.7 -3.7L5.8 1.3L2.6 5.4L-2.6 5.4L-5.8 1.3L-4.7 -3.7Z" stroke="#297EA6" fill="none" stroke-width="1"></path></g><g transform="translate(816 10)"><path d="M0 -5L3.9 -3.1L4.9 1.1L2.2 4.5L-2.2 4.5L-4.9 1.1L-3.9 -3.1Z" stroke="#297EA6" fill="none" stroke-width="1"></path></g><g transform="translate(736 373)"><path d="M0 -2L1.6 -1.2L1.9 0.4L0.9 1.8L-0.9 1.8L-1.9 0.4L-1.6 -1.2Z" stroke="#297EA6" fill="none" stroke-width="1"></path></g><g transform="translate(136 183)"><path d="M0 -1L0.8 -0.6L1 0.2L0.4 0.9L-0.4 0.9L-1 0.2L-0.8 -0.6Z" stroke="#297EA6" fill="none" stroke-width="1"></path></g><g transform="translate(479 260)"><path d="M0 -9L7 -5.6L8.8 2L3.9 8.1L-3.9 8.1L-8.8 2L-7 -5.6Z" stroke="#297EA6" fill="none" stroke-width="1"></path></g><g transform="translate(935 348)"><path d="M0 -9L7 -5.6L8.8 2L3.9 8.1L-3.9 8.1L-8.8 2L-7 -5.6Z" stroke="#297EA6" fill="none" stroke-width="1"></path></g><g transform="translate(148 222)"><path d="M0 -3L2.3 -1.9L2.9 0.7L1.3 2.7L-1.3 2.7L-2.9 0.7L-2.3 -1.9Z" stroke="#297EA6" fill="none" stroke-width="1"></path></g><g transform="translate(830 383)"><path d="M0 -10L7.8 -6.2L9.7 2.2L4.3 9L-4.3 9L-9.7 2.2L-7.8 -6.2Z" stroke="#297EA6" fill="none" stroke-width="1"></path></g><g transform="translate(65 400)"><path d="M0 -2L1.6 -1.2L1.9 0.4L0.9 1.8L-0.9 1.8L-1.9 0.4L-1.6 -1.2Z" stroke="#297EA6" fill="none" stroke-width="1"></path></g><g transform="translate(703 248)"><path d="M0 -11L8.6 -6.9L10.7 2.4L4.8 9.9L-4.8 9.9L-10.7 2.4L-8.6 -6.9Z" stroke="#297EA6" fill="none" stroke-width="1"></path></g><g transform="translate(31 118)"><path d="M0 -11L8.6 -6.9L10.7 2.4L4.8 9.9L-4.8 9.9L-10.7 2.4L-8.6 -6.9Z" stroke="#297EA6" fill="none" stroke-width="1"></path></g><g transform="translate(780 112)"><path d="M0 -2L1.6 -1.2L1.9 0.4L0.9 1.8L-0.9 1.8L-1.9 0.4L-1.6 -1.2Z" stroke="#297EA6" fill="none" stroke-width="1"></path></g><g transform="translate(940 288)"><path d="M0 -3L2.3 -1.9L2.9 0.7L1.3 2.7L-1.3 2.7L-2.9 0.7L-2.3 -1.9Z" stroke="#297EA6" fill="none" stroke-width="1"></path></g><g transform="translate(593 280)"><path d="M0 -2L1.6 -1.2L1.9 0.4L0.9 1.8L-0.9 1.8L-1.9 0.4L-1.6 -1.2Z" stroke="#297EA6" fill="none" stroke-width="1"></path></g><g transform="translate(151 159)"><path d="M0 -7L5.5 -4.4L6.8 1.6L3 6.3L-3 6.3L-6.8 1.6L-5.5 -4.4Z" stroke="#297EA6" fill="none" stroke-width="1"></path></g><g transform="translate(43 10)"><path d="M0 -4L3.1 -2.5L3.9 0.9L1.7 3.6L-1.7 3.6L-3.9 0.9L-3.1 -2.5Z" stroke="#297EA6" fill="none" stroke-width="1"></path></g><g transform="translate(722 415)"><path d="M0 -2L1.6 -1.2L1.9 0.4L0.9 1.8L-0.9 1.8L-1.9 0.4L-1.6 -1.2Z" stroke="#297EA6" fill="none" stroke-width="1"></path></g><g transform="translate(570 31)"><path d="M0 -8L6.3 -5L7.8 1.8L3.5 7.2L-3.5 7.2L-7.8 1.8L-6.3 -5Z" stroke="#297EA6" fill="none" stroke-width="1"></path></g><g transform="translate(261 278)"><path d="M0 -7L5.5 -4.4L6.8 1.6L3 6.3L-3 6.3L-6.8 1.6L-5.5 -4.4Z" stroke="#297EA6" fill="none" stroke-width="1"></path></g><g transform="translate(90 198)"><path d="M0 -5L3.9 -3.1L4.9 1.1L2.2 4.5L-2.2 4.5L-4.9 1.1L-3.9 -3.1Z" stroke="#297EA6" fill="none" stroke-width="1"></path></g><g transform="translate(838 200)"><path d="M0 -6L4.7 -3.7L5.8 1.3L2.6 5.4L-2.6 5.4L-5.8 1.3L-4.7 -3.7Z" stroke="#297EA6" fill="none" stroke-width="1"></path></g><g transform="translate(148 42)"><path d="M0 -8L6.3 -5L7.8 1.8L3.5 7.2L-3.5 7.2L-7.8 1.8L-6.3 -5Z" stroke="#297EA6" fill="none" stroke-width="1"></path></g><g transform="translate(867 377)"><path d="M0 -11L8.6 -6.9L10.7 2.4L4.8 9.9L-4.8 9.9L-10.7 2.4L-8.6 -6.9Z" stroke="#297EA6" fill="none" stroke-width="1"></path></g><g transform="translate(96 468)"><path d="M0 -6L4.7 -3.7L5.8 1.3L2.6 5.4L-2.6 5.4L-5.8 1.3L-4.7 -3.7Z" stroke="#297EA6" fill="none" stroke-width="1"></path></g><g transform="translate(50 499)"><path d="M0 -1L0.8 -0.6L1 0.2L0.4 0.9L-0.4 0.9L-1 0.2L-0.8 -0.6Z" stroke="#297EA6" fill="none" stroke-width="1"></path></g><g transform="translate(944 173)"><path d="M0 -5L3.9 -3.1L4.9 1.1L2.2 4.5L-2.2 4.5L-4.9 1.1L-3.9 -3.1Z" stroke="#297EA6" fill="none" stroke-width="1"></path></g><g transform="translate(387 64)"><path d="M0 -1L0.8 -0.6L1 0.2L0.4 0.9L-0.4 0.9L-1 0.2L-0.8 -0.6Z" stroke="#297EA6" fill="none" stroke-width="1"></path></g><g transform="translate(880 71)"><path d="M0 -5L3.9 -3.1L4.9 1.1L2.2 4.5L-2.2 4.5L-4.9 1.1L-3.9 -3.1Z" stroke="#297EA6" fill="none" stroke-width="1"></path></g><g transform="translate(789 30)"><path d="M0 -6L4.7 -3.7L5.8 1.3L2.6 5.4L-2.6 5.4L-5.8 1.3L-4.7 -3.7Z" stroke="#297EA6" fill="none" stroke-width="1"></path></g><g transform="translate(690 278)"><path d="M0 -1L0.8 -0.6L1 0.2L0.4 0.9L-0.4 0.9L-1 0.2L-0.8 -0.6Z" stroke="#297EA6" fill="none" stroke-width="1"></path></g><g transform="translate(880 433)"><path d="M0 -10L7.8 -6.2L9.7 2.2L4.3 9L-4.3 9L-9.7 2.2L-7.8 -6.2Z" stroke="#297EA6" fill="none" stroke-width="1"></path></g><g transform="translate(97 405)"><path d="M0 -10L7.8 -6.2L9.7 2.2L4.3 9L-4.3 9L-9.7 2.2L-7.8 -6.2Z" stroke="#297EA6" fill="none" stroke-width="1"></path></g><g transform="translate(522 477)"><path d="M0 -4L3.1 -2.5L3.9 0.9L1.7 3.6L-1.7 3.6L-3.9 0.9L-3.1 -2.5Z" stroke="#297EA6" fill="none" stroke-width="1"></path></g><g transform="translate(830 431)"><path d="M0 -7L5.5 -4.4L6.8 1.6L3 6.3L-3 6.3L-6.8 1.6L-5.5 -4.4Z" stroke="#297EA6" fill="none" stroke-width="1"></path></g><g transform="translate(219 237)"><path d="M0 -7L5.5 -4.4L6.8 1.6L3 6.3L-3 6.3L-6.8 1.6L-5.5 -4.4Z" stroke="#297EA6" fill="none" stroke-width="1"></path></g><g transform="translate(78 291)"><path d="M0 -10L7.8 -6.2L9.7 2.2L4.3 9L-4.3 9L-9.7 2.2L-7.8 -6.2Z" stroke="#297EA6" fill="none" stroke-width="1"></path></g><g transform="translate(829 504)"><path d="M0 -9L7 -5.6L8.8 2L3.9 8.1L-3.9 8.1L-8.8 2L-7 -5.6Z" stroke="#297EA6" fill="none" stroke-width="1"></path></g><g transform="translate(833 139)"><path d="M0 -2L1.6 -1.2L1.9 0.4L0.9 1.8L-0.9 1.8L-1.9 0.4L-1.6 -1.2Z" stroke="#297EA6" fill="none" stroke-width="1"></path></g><g transform="translate(908 15)"><path d="M0 -8L6.3 -5L7.8 1.8L3.5 7.2L-3.5 7.2L-7.8 1.8L-6.3 -5Z" stroke="#297EA6" fill="none" stroke-width="1"></path></g><g transform="translate(822 168)"><path d="M0 -7L5.5 -4.4L6.8 1.6L3 6.3L-3 6.3L-6.8 1.6L-5.5 -4.4Z" stroke="#297EA6" fill="none" stroke-width="1"></path></g><g transform="translate(463 371)"><path d="M0 -9L7 -5.6L8.8 2L3.9 8.1L-3.9 8.1L-8.8 2L-7 -5.6Z" stroke="#297EA6" fill="none" stroke-width="1"></path></g><g transform="translate(391 336)"><path d="M0 -10L7.8 -6.2L9.7 2.2L4.3 9L-4.3 9L-9.7 2.2L-7.8 -6.2Z" stroke="#297EA6" fill="none" stroke-width="1"></path></g><g transform="translate(397 468)"><path d="M0 -11L8.6 -6.9L10.7 2.4L4.8 9.9L-4.8 9.9L-10.7 2.4L-8.6 -6.9Z" stroke="#297EA6" fill="none" stroke-width="1"></path></g><g transform="translate(530 106)"><path d="M0 -1L0.8 -0.6L1 0.2L0.4 0.9L-0.4 0.9L-1 0.2L-0.8 -0.6Z" stroke="#297EA6" fill="none" stroke-width="1"></path></g><g transform="translate(469 178)"><path d="M0 -9L7 -5.6L8.8 2L3.9 8.1L-3.9 8.1L-8.8 2L-7 -5.6Z" stroke="#297EA6" fill="none" stroke-width="1"></path></g><g transform="translate(415 348)"><path d="M0 -4L3.1 -2.5L3.9 0.9L1.7 3.6L-1.7 3.6L-3.9 0.9L-3.1 -2.5Z" stroke="#297EA6" fill="none" stroke-width="1"></path></g><g transform="translate(767 326)"><path d="M0 -9L7 -5.6L8.8 2L3.9 8.1L-3.9 8.1L-8.8 2L-7 -5.6Z" stroke="#297EA6" fill="none" stroke-width="1"></path></g><g transform="translate(635 303)"><path d="M0 -8L6.3 -5L7.8 1.8L3.5 7.2L-3.5 7.2L-7.8 1.8L-6.3 -5Z" stroke="#297EA6" fill="none" stroke-width="1"></path></g><g transform="translate(653 257)"><path d="M0 -2L1.6 -1.2L1.9 0.4L0.9 1.8L-0.9 1.8L-1.9 0.4L-1.6 -1.2Z" stroke="#297EA6" fill="none" stroke-width="1"></path></g><g transform="translate(275 330)"><path d="M0 -4L3.1 -2.5L3.9 0.9L1.7 3.6L-1.7 3.6L-3.9 0.9L-3.1 -2.5Z" stroke="#297EA6" fill="none" stroke-width="1"></path></g><g transform="translate(793 396)"><path d="M0 -11L8.6 -6.9L10.7 2.4L4.8 9.9L-4.8 9.9L-10.7 2.4L-8.6 -6.9Z" stroke="#297EA6" fill="none" stroke-width="1"></path></g><g transform="translate(429 372)"><path d="M0 -4L3.1 -2.5L3.9 0.9L1.7 3.6L-1.7 3.6L-3.9 0.9L-3.1 -2.5Z" stroke="#297EA6" fill="none" stroke-width="1"></path></g><g transform="translate(488 46)"><path d="M0 -7L5.5 -4.4L6.8 1.6L3 6.3L-3 6.3L-6.8 1.6L-5.5 -4.4Z" stroke="#297EA6" fill="none" stroke-width="1"></path></g><g transform="translate(829 536)"><path d="M0 -10L7.8 -6.2L9.7 2.2L4.3 9L-4.3 9L-9.7 2.2L-7.8 -6.2Z" stroke="#297EA6" fill="none" stroke-width="1"></path></g><g transform="translate(10 31)"><path d="M0 -8L6.3 -5L7.8 1.8L3.5 7.2L-3.5 7.2L-7.8 1.8L-6.3 -5Z" stroke="#297EA6" fill="none" stroke-width="1"></path></g><g transform="translate(33 80)"><path d="M0 -7L5.5 -4.4L6.8 1.6L3 6.3L-3 6.3L-6.8 1.6L-5.5 -4.4Z" stroke="#297EA6" fill="none" stroke-width="1"></path></g><g transform="translate(396 144)"><path d="M0 -2L1.6 -1.2L1.9 0.4L0.9 1.8L-0.9 1.8L-1.9 0.4L-1.6 -1.2Z" stroke="#297EA6" fill="none" stroke-width="1"></path></g><g transform="translate(262 516)"><path d="M0 -10L7.8 -6.2L9.7 2.2L4.3 9L-4.3 9L-9.7 2.2L-7.8 -6.2Z" stroke="#297EA6" fill="none" stroke-width="1"></path></g><g transform="translate(720 43)"><path d="M0 -1L0.8 -0.6L1 0.2L0.4 0.9L-0.4 0.9L-1 0.2L-0.8 -0.6Z" stroke="#297EA6" fill="none" stroke-width="1"></path></g><g transform="translate(572 254)"><path d="M0 -8L6.3 -5L7.8 1.8L3.5 7.2L-3.5 7.2L-7.8 1.8L-6.3 -5Z" stroke="#297EA6" fill="none" stroke-width="1"></path></g><g transform="translate(197 534)"><path d="M0 -10L7.8 -6.2L9.7 2.2L4.3 9L-4.3 9L-9.7 2.2L-7.8 -6.2Z" stroke="#297EA6" fill="none" stroke-width="1"></path></g><g transform="translate(572 143)"><path d="M0 -5L3.9 -3.1L4.9 1.1L2.2 4.5L-2.2 4.5L-4.9 1.1L-3.9 -3.1Z" stroke="#297EA6" fill="none" stroke-width="1"></path></g><g transform="translate(313 318)"><path d="M0 -10L7.8 -6.2L9.7 2.2L4.3 9L-4.3 9L-9.7 2.2L-7.8 -6.2Z" stroke="#297EA6" fill="none" stroke-width="1"></path></g><g transform="translate(209 354)"><path d="M0 -11L8.6 -6.9L10.7 2.4L4.8 9.9L-4.8 9.9L-10.7 2.4L-8.6 -6.9Z" stroke="#297EA6" fill="none" stroke-width="1"></path></g><g transform="translate(194 420)"><path d="M0 -5L3.9 -3.1L4.9 1.1L2.2 4.5L-2.2 4.5L-4.9 1.1L-3.9 -3.1Z" stroke="#297EA6" fill="none" stroke-width="1"></path></g><g transform="translate(27 327)"><path d="M0 -10L7.8 -6.2L9.7 2.2L4.3 9L-4.3 9L-9.7 2.2L-7.8 -6.2Z" stroke="#297EA6" fill="none" stroke-width="1"></path></g><g transform="translate(926 464)"><path d="M0 -8L6.3 -5L7.8 1.8L3.5 7.2L-3.5 7.2L-7.8 1.8L-6.3 -5Z" stroke="#297EA6" fill="none" stroke-width="1"></path></g><g transform="translate(676 324)"><path d="M0 -1L0.8 -0.6L1 0.2L0.4 0.9L-0.4 0.9L-1 0.2L-0.8 -0.6Z" stroke="#297EA6" fill="none" stroke-width="1"></path></g><g transform="translate(124 483)"><path d="M0 -6L4.7 -3.7L5.8 1.3L2.6 5.4L-2.6 5.4L-5.8 1.3L-4.7 -3.7Z" stroke="#297EA6" fill="none" stroke-width="1"></path></g><g transform="translate(870 197)"><path d="M0 -5L3.9 -3.1L4.9 1.1L2.2 4.5L-2.2 4.5L-4.9 1.1L-3.9 -3.1Z" stroke="#297EA6" fill="none" stroke-width="1"></path></g><g transform="translate(882 6)"><path d="M0 -10L7.8 -6.2L9.7 2.2L4.3 9L-4.3 9L-9.7 2.2L-7.8 -6.2Z" stroke="#297EA6" fill="none" stroke-width="1"></path></g><g transform="translate(295 532)"><path d="M0 -11L8.6 -6.9L10.7 2.4L4.8 9.9L-4.8 9.9L-10.7 2.4L-8.6 -6.9Z" stroke="#297EA6" fill="none" stroke-width="1"></path></g><g transform="translate(860 472)"><path d="M0 -7L5.5 -4.4L6.8 1.6L3 6.3L-3 6.3L-6.8 1.6L-5.5 -4.4Z" stroke="#297EA6" fill="none" stroke-width="1"></path></g><g transform="translate(310 56)"><path d="M0 -4L3.1 -2.5L3.9 0.9L1.7 3.6L-1.7 3.6L-3.9 0.9L-3.1 -2.5Z" stroke="#297EA6" fill="none" stroke-width="1"></path></g><g transform="translate(309 213)"><path d="M0 -2L1.6 -1.2L1.9 0.4L0.9 1.8L-0.9 1.8L-1.9 0.4L-1.6 -1.2Z" stroke="#297EA6" fill="none" stroke-width="1"></path></g><g transform="translate(504 516)"><path d="M0 -3L2.3 -1.9L2.9 0.7L1.3 2.7L-1.3 2.7L-2.9 0.7L-2.3 -1.9Z" stroke="#297EA6" fill="none" stroke-width="1"></path></g><g transform="translate(321 6)"><path d="M0 -10L7.8 -6.2L9.7 2.2L4.3 9L-4.3 9L-9.7 2.2L-7.8 -6.2Z" stroke="#297EA6" fill="none" stroke-width="1"></path></g><g transform="translate(805 260)"><path d="M0 -1L0.8 -0.6L1 0.2L0.4 0.9L-0.4 0.9L-1 0.2L-0.8 -0.6Z" stroke="#297EA6" fill="none" stroke-width="1"></path></g><g transform="translate(26 480)"><path d="M0 -4L3.1 -2.5L3.9 0.9L1.7 3.6L-1.7 3.6L-3.9 0.9L-3.1 -2.5Z" stroke="#297EA6" fill="none" stroke-width="1"></path></g><g transform="translate(951 386)"><path d="M0 -4L3.1 -2.5L3.9 0.9L1.7 3.6L-1.7 3.6L-3.9 0.9L-3.1 -2.5Z" stroke="#297EA6" fill="none" stroke-width="1"></path></g><g transform="translate(652 411)"><path d="M0 -10L7.8 -6.2L9.7 2.2L4.3 9L-4.3 9L-9.7 2.2L-7.8 -6.2Z" stroke="#297EA6" fill="none" stroke-width="1"></path></g><g transform="translate(236 362)"><path d="M0 -7L5.5 -4.4L6.8 1.6L3 6.3L-3 6.3L-6.8 1.6L-5.5 -4.4Z" stroke="#297EA6" fill="none" stroke-width="1"></path></g><g transform="translate(914 120)"><path d="M0 -10L7.8 -6.2L9.7 2.2L4.3 9L-4.3 9L-9.7 2.2L-7.8 -6.2Z" stroke="#297EA6" fill="none" stroke-width="1"></path></g><g transform="translate(20 371)"><path d="M0 -5L3.9 -3.1L4.9 1.1L2.2 4.5L-2.2 4.5L-4.9 1.1L-3.9 -3.1Z" stroke="#297EA6" fill="none" stroke-width="1"></path></g><g transform="translate(148 258)"><path d="M0 -4L3.1 -2.5L3.9 0.9L1.7 3.6L-1.7 3.6L-3.9 0.9L-3.1 -2.5Z" stroke="#297EA6" fill="none" stroke-width="1"></path></g><g transform="translate(565 71)"><path d="M0 -9L7 -5.6L8.8 2L3.9 8.1L-3.9 8.1L-8.8 2L-7 -5.6Z" stroke="#297EA6" fill="none" stroke-width="1"></path></g><g transform="translate(111 336)"><path d="M0 -7L5.5 -4.4L6.8 1.6L3 6.3L-3 6.3L-6.8 1.6L-5.5 -4.4Z" stroke="#297EA6" fill="none" stroke-width="1"></path></g><g transform="translate(652 509)"><path d="M0 -8L6.3 -5L7.8 1.8L3.5 7.2L-3.5 7.2L-7.8 1.8L-6.3 -5Z" stroke="#297EA6" fill="none" stroke-width="1"></path></g><g transform="translate(949 83)"><path d="M0 -1L0.8 -0.6L1 0.2L0.4 0.9L-0.4 0.9L-1 0.2L-0.8 -0.6Z" stroke="#297EA6" fill="none" stroke-width="1"></path></g><g transform="translate(395 94)"><path d="M0 -7L5.5 -4.4L6.8 1.6L3 6.3L-3 6.3L-6.8 1.6L-5.5 -4.4Z" stroke="#297EA6" fill="none" stroke-width="1"></path></g><g transform="translate(186 82)"><path d="M0 -3L2.3 -1.9L2.9 0.7L1.3 2.7L-1.3 2.7L-2.9 0.7L-2.3 -1.9Z" stroke="#297EA6" fill="none" stroke-width="1"></path></g><g transform="translate(794 62)"><path d="M0 -6L4.7 -3.7L5.8 1.3L2.6 5.4L-2.6 5.4L-5.8 1.3L-4.7 -3.7Z" stroke="#297EA6" fill="none" stroke-width="1"></path></g><g transform="translate(145 130)"><path d="M0 -7L5.5 -4.4L6.8 1.6L3 6.3L-3 6.3L-6.8 1.6L-5.5 -4.4Z" stroke="#297EA6" fill="none" stroke-width="1"></path></g><g transform="translate(778 4)"><path d="M0 -6L4.7 -3.7L5.8 1.3L2.6 5.4L-2.6 5.4L-5.8 1.3L-4.7 -3.7Z" stroke="#297EA6" fill="none" stroke-width="1"></path></g><g transform="translate(5 527)"><path d="M0 -7L5.5 -4.4L6.8 1.6L3 6.3L-3 6.3L-6.8 1.6L-5.5 -4.4Z" stroke="#297EA6" fill="none" stroke-width="1"></path></g><g transform="translate(691 353)"><path d="M0 -5L3.9 -3.1L4.9 1.1L2.2 4.5L-2.2 4.5L-4.9 1.1L-3.9 -3.1Z" stroke="#297EA6" fill="none" stroke-width="1"></path></g><g transform="translate(510 89)"><path d="M0 -7L5.5 -4.4L6.8 1.6L3 6.3L-3 6.3L-6.8 1.6L-5.5 -4.4Z" stroke="#297EA6" fill="none" stroke-width="1"></path></g><g transform="translate(464 297)"><path d="M0 -2L1.6 -1.2L1.9 0.4L0.9 1.8L-0.9 1.8L-1.9 0.4L-1.6 -1.2Z" stroke="#297EA6" fill="none" stroke-width="1"></path></g><g transform="translate(653 375)"><path d="M0 -10L7.8 -6.2L9.7 2.2L4.3 9L-4.3 9L-9.7 2.2L-7.8 -6.2Z" stroke="#297EA6" fill="none" stroke-width="1"></path></g><g transform="translate(455 418)"><path d="M0 -10L7.8 -6.2L9.7 2.2L4.3 9L-4.3 9L-9.7 2.2L-7.8 -6.2Z" stroke="#297EA6" fill="none" stroke-width="1"></path></g><g transform="translate(734 480)"><path d="M0 -8L6.3 -5L7.8 1.8L3.5 7.2L-3.5 7.2L-7.8 1.8L-6.3 -5Z" stroke="#297EA6" fill="none" stroke-width="1"></path></g><g transform="translate(709 190)"><path d="M0 -8L6.3 -5L7.8 1.8L3.5 7.2L-3.5 7.2L-7.8 1.8L-6.3 -5Z" stroke="#297EA6" fill="none" stroke-width="1"></path></g><g transform="translate(637 481)"><path d="M0 -6L4.7 -3.7L5.8 1.3L2.6 5.4L-2.6 5.4L-5.8 1.3L-4.7 -3.7Z" stroke="#297EA6" fill="none" stroke-width="1"></path></g><g transform="translate(208 190)"><path d="M0 -1L0.8 -0.6L1 0.2L0.4 0.9L-0.4 0.9L-1 0.2L-0.8 -0.6Z" stroke="#297EA6" fill="none" stroke-width="1"></path></g><g transform="translate(250 403)"><path d="M0 -4L3.1 -2.5L3.9 0.9L1.7 3.6L-1.7 3.6L-3.9 0.9L-3.1 -2.5Z" stroke="#297EA6" fill="none" stroke-width="1"></path></g><g transform="translate(335 512)"><path d="M0 -5L3.9 -3.1L4.9 1.1L2.2 4.5L-2.2 4.5L-4.9 1.1L-3.9 -3.1Z" stroke="#297EA6" fill="none" stroke-width="1"></path></g><g transform="translate(212 297)"><path d="M0 -2L1.6 -1.2L1.9 0.4L0.9 1.8L-0.9 1.8L-1.9 0.4L-1.6 -1.2Z" stroke="#297EA6" fill="none" stroke-width="1"></path></g><g transform="translate(388 424)"><path d="M0 -4L3.1 -2.5L3.9 0.9L1.7 3.6L-1.7 3.6L-3.9 0.9L-3.1 -2.5Z" stroke="#297EA6" fill="none" stroke-width="1"></path></g><g transform="translate(893 237)"><path d="M0 -7L5.5 -4.4L6.8 1.6L3 6.3L-3 6.3L-6.8 1.6L-5.5 -4.4Z" stroke="#297EA6" fill="none" stroke-width="1"></path></g><g transform="translate(302 254)"><path d="M0 -5L3.9 -3.1L4.9 1.1L2.2 4.5L-2.2 4.5L-4.9 1.1L-3.9 -3.1Z" stroke="#297EA6" fill="none" stroke-width="1"></path></g><g transform="translate(230 434)"><path d="M0 -7L5.5 -4.4L6.8 1.6L3 6.3L-3 6.3L-6.8 1.6L-5.5 -4.4Z" stroke="#297EA6" fill="none" stroke-width="1"></path></g><g transform="translate(588 416)"><path d="M0 -5L3.9 -3.1L4.9 1.1L2.2 4.5L-2.2 4.5L-4.9 1.1L-3.9 -3.1Z" stroke="#297EA6" fill="none" stroke-width="1"></path></g><g transform="translate(423 306)"><path d="M0 -9L7 -5.6L8.8 2L3.9 8.1L-3.9 8.1L-8.8 2L-7 -5.6Z" stroke="#297EA6" fill="none" stroke-width="1"></path></g><g transform="translate(148 532)"><path d="M0 -1L0.8 -0.6L1 0.2L0.4 0.9L-0.4 0.9L-1 0.2L-0.8 -0.6Z" stroke="#297EA6" fill="none" stroke-width="1"></path></g><g transform="translate(640 181)"><path d="M0 -9L7 -5.6L8.8 2L3.9 8.1L-3.9 8.1L-8.8 2L-7 -5.6Z" stroke="#297EA6" fill="none" stroke-width="1"></path></g><g transform="translate(900 487)"><path d="M0 -4L3.1 -2.5L3.9 0.9L1.7 3.6L-1.7 3.6L-3.9 0.9L-3.1 -2.5Z" stroke="#297EA6" fill="none" stroke-width="1"></path></g><g transform="translate(356 91)"><path d="M0 -9L7 -5.6L8.8 2L3.9 8.1L-3.9 8.1L-8.8 2L-7 -5.6Z" stroke="#297EA6" fill="none" stroke-width="1"></path></g><g transform="translate(639 453)"><path d="M0 -7L5.5 -4.4L6.8 1.6L3 6.3L-3 6.3L-6.8 1.6L-5.5 -4.4Z" stroke="#297EA6" fill="none" stroke-width="1"></path></g><g transform="translate(802 321)"><path d="M0 -7L5.5 -4.4L6.8 1.6L3 6.3L-3 6.3L-6.8 1.6L-5.5 -4.4Z" stroke="#297EA6" fill="none" stroke-width="1"></path></g><g transform="translate(411 38)"><path d="M0 -11L8.6 -6.9L10.7 2.4L4.8 9.9L-4.8 9.9L-10.7 2.4L-8.6 -6.9Z" stroke="#297EA6" fill="none" stroke-width="1"></path></g><g transform="translate(212 460)"><path d="M0 -2L1.6 -1.2L1.9 0.4L0.9 1.8L-0.9 1.8L-1.9 0.4L-1.6 -1.2Z" stroke="#297EA6" fill="none" stroke-width="1"></path></g><g transform="translate(649 341)"><path d="M0 -9L7 -5.6L8.8 2L3.9 8.1L-3.9 8.1L-8.8 2L-7 -5.6Z" stroke="#297EA6" fill="none" stroke-width="1"></path></g><g transform="translate(90 164)"><path d="M0 -4L3.1 -2.5L3.9 0.9L1.7 3.6L-1.7 3.6L-3.9 0.9L-3.1 -2.5Z" stroke="#297EA6" fill="none" stroke-width="1"></path></g><g transform="translate(908 520)"><path d="M0 -6L4.7 -3.7L5.8 1.3L2.6 5.4L-2.6 5.4L-5.8 1.3L-4.7 -3.7Z" stroke="#297EA6" fill="none" stroke-width="1"></path></g><g transform="translate(548 162)"><path d="M0 -9L7 -5.6L8.8 2L3.9 8.1L-3.9 8.1L-8.8 2L-7 -5.6Z" stroke="#297EA6" fill="none" stroke-width="1"></path></g><g transform="translate(918 207)"><path d="M0 -10L7.8 -6.2L9.7 2.2L4.3 9L-4.3 9L-9.7 2.2L-7.8 -6.2Z" stroke="#297EA6" fill="none" stroke-width="1"></path></g><g transform="translate(41 251)"><path d="M0 -8L6.3 -5L7.8 1.8L3.5 7.2L-3.5 7.2L-7.8 1.8L-6.3 -5Z" stroke="#297EA6" fill="none" stroke-width="1"></path></g><g transform="translate(662 193)"><path d="M0 -9L7 -5.6L8.8 2L3.9 8.1L-3.9 8.1L-8.8 2L-7 -5.6Z" stroke="#297EA6" fill="none" stroke-width="1"></path></g><g transform="translate(304 370)"><path d="M0 -8L6.3 -5L7.8 1.8L3.5 7.2L-3.5 7.2L-7.8 1.8L-6.3 -5Z" stroke="#297EA6" fill="none" stroke-width="1"></path></g><g transform="translate(7 403)"><path d="M0 -2L1.6 -1.2L1.9 0.4L0.9 1.8L-0.9 1.8L-1.9 0.4L-1.6 -1.2Z" stroke="#297EA6" fill="none" stroke-width="1"></path></g><g transform="translate(292 105)"><path d="M0 -11L8.6 -6.9L10.7 2.4L4.8 9.9L-4.8 9.9L-10.7 2.4L-8.6 -6.9Z" stroke="#297EA6" fill="none" stroke-width="1"></path></g><g transform="translate(687 67)"><path d="M0 -1L0.8 -0.6L1 0.2L0.4 0.9L-0.4 0.9L-1 0.2L-0.8 -0.6Z" stroke="#297EA6" fill="none" stroke-width="1"></path></g><g transform="translate(816 468)"><path d="M0 -5L3.9 -3.1L4.9 1.1L2.2 4.5L-2.2 4.5L-4.9 1.1L-3.9 -3.1Z" stroke="#297EA6" fill="none" stroke-width="1"></path></g><g transform="translate(129 16)"><path d="M0 -3L2.3 -1.9L2.9 0.7L1.3 2.7L-1.3 2.7L-2.9 0.7L-2.3 -1.9Z" stroke="#297EA6" fill="none" stroke-width="1"></path></g><g transform="translate(520 348)"><path d="M0 -9L7 -5.6L8.8 2L3.9 8.1L-3.9 8.1L-8.8 2L-7 -5.6Z" stroke="#297EA6" fill="none" stroke-width="1"></path></g><g transform="translate(728 171)"><path d="M0 -4L3.1 -2.5L3.9 0.9L1.7 3.6L-1.7 3.6L-3.9 0.9L-3.1 -2.5Z" stroke="#297EA6" fill="none" stroke-width="1"></path></g><g transform="translate(687 205)"><path d="M0 -8L6.3 -5L7.8 1.8L3.5 7.2L-3.5 7.2L-7.8 1.8L-6.3 -5Z" stroke="#297EA6" fill="none" stroke-width="1"></path></g><g transform="translate(562 536)"><path d="M0 -2L1.6 -1.2L1.9 0.4L0.9 1.8L-0.9 1.8L-1.9 0.4L-1.6 -1.2Z" stroke="#297EA6" fill="none" stroke-width="1"></path></g><g transform="translate(18 207)"><path d="M0 -1L0.8 -0.6L1 0.2L0.4 0.9L-0.4 0.9L-1 0.2L-0.8 -0.6Z" stroke="#297EA6" fill="none" stroke-width="1"></path></g><g transform="translate(612 449)"><path d="M0 -3L2.3 -1.9L2.9 0.7L1.3 2.7L-1.3 2.7L-2.9 0.7L-2.3 -1.9Z" stroke="#297EA6" fill="none" stroke-width="1"></path></g><g transform="translate(421 104)"><path d="M0 -9L7 -5.6L8.8 2L3.9 8.1L-3.9 8.1L-8.8 2L-7 -5.6Z" stroke="#297EA6" fill="none" stroke-width="1"></path></g><g transform="translate(956 515)"><path d="M0 -6L4.7 -3.7L5.8 1.3L2.6 5.4L-2.6 5.4L-5.8 1.3L-4.7 -3.7Z" stroke="#297EA6" fill="none" stroke-width="1"></path></g><g transform="translate(297 497)"><path d="M0 -11L8.6 -6.9L10.7 2.4L4.8 9.9L-4.8 9.9L-10.7 2.4L-8.6 -6.9Z" stroke="#297EA6" fill="none" stroke-width="1"></path></g><g transform="translate(263 158)"><path d="M0 -3L2.3 -1.9L2.9 0.7L1.3 2.7L-1.3 2.7L-2.9 0.7L-2.3 -1.9Z" stroke="#297EA6" fill="none" stroke-width="1"></path></g><g transform="translate(220 29)"><path d="M0 -10L7.8 -6.2L9.7 2.2L4.3 9L-4.3 9L-9.7 2.2L-7.8 -6.2Z" stroke="#297EA6" fill="none" stroke-width="1"></path></g><g transform="translate(111 248)"><path d="M0 -9L7 -5.6L8.8 2L3.9 8.1L-3.9 8.1L-8.8 2L-7 -5.6Z" stroke="#297EA6" fill="none" stroke-width="1"></path></g><g transform="translate(944 322)"><path d="M0 -5L3.9 -3.1L4.9 1.1L2.2 4.5L-2.2 4.5L-4.9 1.1L-3.9 -3.1Z" stroke="#297EA6" fill="none" stroke-width="1"></path></g><g transform="translate(604 45)"><path d="M0 -10L7.8 -6.2L9.7 2.2L4.3 9L-4.3 9L-9.7 2.2L-7.8 -6.2Z" stroke="#297EA6" fill="none" stroke-width="1"></path></g><g transform="translate(721 269)"><path d="M0 -2L1.6 -1.2L1.9 0.4L0.9 1.8L-0.9 1.8L-1.9 0.4L-1.6 -1.2Z" stroke="#297EA6" fill="none" stroke-width="1"></path></g><g transform="translate(150 291)"><path d="M0 -5L3.9 -3.1L4.9 1.1L2.2 4.5L-2.2 4.5L-4.9 1.1L-3.9 -3.1Z" stroke="#297EA6" fill="none" stroke-width="1"></path></g><g transform="translate(581 200)"><path d="M0 -4L3.1 -2.5L3.9 0.9L1.7 3.6L-1.7 3.6L-3.9 0.9L-3.1 -2.5Z" stroke="#297EA6" fill="none" stroke-width="1"></path></g><g transform="translate(867 257)"><path d="M0 -4L3.1 -2.5L3.9 0.9L1.7 3.6L-1.7 3.6L-3.9 0.9L-3.1 -2.5Z" stroke="#297EA6" fill="none" stroke-width="1"></path></g><g transform="translate(725 343)"><path d="M0 -8L6.3 -5L7.8 1.8L3.5 7.2L-3.5 7.2L-7.8 1.8L-6.3 -5Z" stroke="#297EA6" fill="none" stroke-width="1"></path></g><g transform="translate(237 533)"><path d="M0 -5L3.9 -3.1L4.9 1.1L2.2 4.5L-2.2 4.5L-4.9 1.1L-3.9 -3.1Z" stroke="#297EA6" fill="none" stroke-width="1"></path></g><g transform="translate(464 214)"><path d="M0 -11L8.6 -6.9L10.7 2.4L4.8 9.9L-4.8 9.9L-10.7 2.4L-8.6 -6.9Z" stroke="#297EA6" fill="none" stroke-width="1"></path></g><g transform="translate(846 10)"><path d="M0 -1L0.8 -0.6L1 0.2L0.4 0.9L-0.4 0.9L-1 0.2L-0.8 -0.6Z" stroke="#297EA6" fill="none" stroke-width="1"></path></g><g transform="translate(849 78)"><path d="M0 -8L6.3 -5L7.8 1.8L3.5 7.2L-3.5 7.2L-7.8 1.8L-6.3 -5Z" stroke="#297EA6" fill="none" stroke-width="1"></path></g><g transform="translate(478 508)"><path d="M0 -3L2.3 -1.9L2.9 0.7L1.3 2.7L-1.3 2.7L-2.9 0.7L-2.3 -1.9Z" stroke="#297EA6" fill="none" stroke-width="1"></path></g><g transform="translate(2 347)"><path d="M0 -11L8.6 -6.9L10.7 2.4L4.8 9.9L-4.8 9.9L-10.7 2.4L-8.6 -6.9Z" stroke="#297EA6" fill="none" stroke-width="1"></path></g><g transform="translate(361 427)"><path d="M0 -2L1.6 -1.2L1.9 0.4L0.9 1.8L-0.9 1.8L-1.9 0.4L-1.6 -1.2Z" stroke="#297EA6" fill="none" stroke-width="1"></path></g><g transform="translate(43 417)"><path d="M0 -5L3.9 -3.1L4.9 1.1L2.2 4.5L-2.2 4.5L-4.9 1.1L-3.9 -3.1Z" stroke="#297EA6" fill="none" stroke-width="1"></path></g><g transform="translate(934 31)"><path d="M0 -4L3.1 -2.5L3.9 0.9L1.7 3.6L-1.7 3.6L-3.9 0.9L-3.1 -2.5Z" stroke="#297EA6" fill="none" stroke-width="1"></path></g><g transform="translate(176 307)"><path d="M0 -6L4.7 -3.7L5.8 1.3L2.6 5.4L-2.6 5.4L-5.8 1.3L-4.7 -3.7Z" stroke="#297EA6" fill="none" stroke-width="1"></path></g><g transform="translate(425 486)"><path d="M0 -6L4.7 -3.7L5.8 1.3L2.6 5.4L-2.6 5.4L-5.8 1.3L-4.7 -3.7Z" stroke="#297EA6" fill="none" stroke-width="1"></path></g><g transform="translate(746 455)"><path d="M0 -8L6.3 -5L7.8 1.8L3.5 7.2L-3.5 7.2L-7.8 1.8L-6.3 -5Z" stroke="#297EA6" fill="none" stroke-width="1"></path></g><g transform="translate(610 188)"><path d="M0 -9L7 -5.6L8.8 2L3.9 8.1L-3.9 8.1L-8.8 2L-7 -5.6Z" stroke="#297EA6" fill="none" stroke-width="1"></path></g><g transform="translate(946 491)"><path d="M0 -6L4.7 -3.7L5.8 1.3L2.6 5.4L-2.6 5.4L-5.8 1.3L-4.7 -3.7Z" stroke="#297EA6" fill="none" stroke-width="1"></path></g><g transform="translate(333 337)"><path d="M0 -8L6.3 -5L7.8 1.8L3.5 7.2L-3.5 7.2L-7.8 1.8L-6.3 -5Z" stroke="#297EA6" fill="none" stroke-width="1"></path></g><g transform="translate(691 468)"><path d="M0 -5L3.9 -3.1L4.9 1.1L2.2 4.5L-2.2 4.5L-4.9 1.1L-3.9 -3.1Z" stroke="#297EA6" fill="none" stroke-width="1"></path></g><g transform="translate(715 81)"><path d="M0 -2L1.6 -1.2L1.9 0.4L0.9 1.8L-0.9 1.8L-1.9 0.4L-1.6 -1.2Z" stroke="#297EA6" fill="none" stroke-width="1"></path></g><g transform="translate(4 241)"><path d="M0 -9L7 -5.6L8.8 2L3.9 8.1L-3.9 8.1L-8.8 2L-7 -5.6Z" stroke="#297EA6" fill="none" stroke-width="1"></path></g><g transform="translate(502 283)"><path d="M0 -6L4.7 -3.7L5.8 1.3L2.6 5.4L-2.6 5.4L-5.8 1.3L-4.7 -3.7Z" stroke="#297EA6" fill="none" stroke-width="1"></path></g><g transform="translate(519 50)"><path d="M0 -9L7 -5.6L8.8 2L3.9 8.1L-3.9 8.1L-8.8 2L-7 -5.6Z" stroke="#297EA6" fill="none" stroke-width="1"></path></g><g transform="translate(162 398)"><path d="M0 -9L7 -5.6L8.8 2L3.9 8.1L-3.9 8.1L-8.8 2L-7 -5.6Z" stroke="#297EA6" fill="none" stroke-width="1"></path></g><g transform="translate(190 112)"><path d="M0 -11L8.6 -6.9L10.7 2.4L4.8 9.9L-4.8 9.9L-10.7 2.4L-8.6 -6.9Z" stroke="#297EA6" fill="none" stroke-width="1"></path></g><g transform="translate(711 441)"><path d="M0 -9L7 -5.6L8.8 2L3.9 8.1L-3.9 8.1L-8.8 2L-7 -5.6Z" stroke="#297EA6" fill="none" stroke-width="1"></path></g><g transform="translate(281 304)"><path d="M0 -1L0.8 -0.6L1 0.2L0.4 0.9L-0.4 0.9L-1 0.2L-0.8 -0.6Z" stroke="#297EA6" fill="none" stroke-width="1"></path></g><g transform="translate(639 535)"><path d="M0 -11L8.6 -6.9L10.7 2.4L4.8 9.9L-4.8 9.9L-10.7 2.4L-8.6 -6.9Z" stroke="#297EA6" fill="none" stroke-width="1"></path></g><g transform="translate(684 525)"><path d="M0 -7L5.5 -4.4L6.8 1.6L3 6.3L-3 6.3L-6.8 1.6L-5.5 -4.4Z" stroke="#297EA6" fill="none" stroke-width="1"></path></g><g transform="translate(161 102)"><path d="M0 -1L0.8 -0.6L1 0.2L0.4 0.9L-0.4 0.9L-1 0.2L-0.8 -0.6Z" stroke="#297EA6" fill="none" stroke-width="1"></path></g><g transform="translate(320 393)"><path d="M0 -6L4.7 -3.7L5.8 1.3L2.6 5.4L-2.6 5.4L-5.8 1.3L-4.7 -3.7Z" stroke="#297EA6" fill="none" stroke-width="1"></path></g><g transform="translate(417 200)"><path d="M0 -1L0.8 -0.6L1 0.2L0.4 0.9L-0.4 0.9L-1 0.2L-0.8 -0.6Z" stroke="#297EA6" fill="none" stroke-width="1"></path></g><g transform="translate(83 116)"><path d="M0 -9L7 -5.6L8.8 2L3.9 8.1L-3.9 8.1L-8.8 2L-7 -5.6Z" stroke="#297EA6" fill="none" stroke-width="1"></path></g><g transform="translate(361 521)"><path d="M0 -6L4.7 -3.7L5.8 1.3L2.6 5.4L-2.6 5.4L-5.8 1.3L-4.7 -3.7Z" stroke="#297EA6" fill="none" stroke-width="1"></path></g><g transform="translate(914 287)"><path d="M0 -9L7 -5.6L8.8 2L3.9 8.1L-3.9 8.1L-8.8 2L-7 -5.6Z" stroke="#297EA6" fill="none" stroke-width="1"></path></g><g transform="translate(112 101)"><path d="M0 -11L8.6 -6.9L10.7 2.4L4.8 9.9L-4.8 9.9L-10.7 2.4L-8.6 -6.9Z" stroke="#297EA6" fill="none" stroke-width="1"></path></g><g transform="translate(111 428)"><path d="M0 -6L4.7 -3.7L5.8 1.3L2.6 5.4L-2.6 5.4L-5.8 1.3L-4.7 -3.7Z" stroke="#297EA6" fill="none" stroke-width="1"></path></g><g transform="translate(204 1)"><path d="M0 -2L1.6 -1.2L1.9 0.4L0.9 1.8L-0.9 1.8L-1.9 0.4L-1.6 -1.2Z" stroke="#297EA6" fill="none" stroke-width="1"></path></g><g transform="translate(594 508)"><path d="M0 -2L1.6 -1.2L1.9 0.4L0.9 1.8L-0.9 1.8L-1.9 0.4L-1.6 -1.2Z" stroke="#297EA6" fill="none" stroke-width="1"></path></g><g transform="translate(391 503)"><path d="M0 -6L4.7 -3.7L5.8 1.3L2.6 5.4L-2.6 5.4L-5.8 1.3L-4.7 -3.7Z" stroke="#297EA6" fill="none" stroke-width="1"></path></g><g transform="translate(579 468)"><path d="M0 -10L7.8 -6.2L9.7 2.2L4.3 9L-4.3 9L-9.7 2.2L-7.8 -6.2Z" stroke="#297EA6" fill="none" stroke-width="1"></path></g><g transform="translate(344 42)"><path d="M0 -5L3.9 -3.1L4.9 1.1L2.2 4.5L-2.2 4.5L-4.9 1.1L-3.9 -3.1Z" stroke="#297EA6" fill="none" stroke-width="1"></path></g><g transform="translate(124 306)"><path d="M0 -5L3.9 -3.1L4.9 1.1L2.2 4.5L-2.2 4.5L-4.9 1.1L-3.9 -3.1Z" stroke="#297EA6" fill="none" stroke-width="1"></path></g><g transform="translate(349 230)"><path d="M0 -9L7 -5.6L8.8 2L3.9 8.1L-3.9 8.1L-8.8 2L-7 -5.6Z" stroke="#297EA6" fill="none" stroke-width="1"></path></g><g transform="translate(555 118)"><path d="M0 -6L4.7 -3.7L5.8 1.3L2.6 5.4L-2.6 5.4L-5.8 1.3L-4.7 -3.7Z" stroke="#297EA6" fill="none" stroke-width="1"></path></g><g transform="translate(886 308)"><path d="M0 -7L5.5 -4.4L6.8 1.6L3 6.3L-3 6.3L-6.8 1.6L-5.5 -4.4Z" stroke="#297EA6" fill="none" stroke-width="1"></path></g><g transform="translate(513 396)"><path d="M0 -10L7.8 -6.2L9.7 2.2L4.3 9L-4.3 9L-9.7 2.2L-7.8 -6.2Z" stroke="#297EA6" fill="none" stroke-width="1"></path></g><g transform="translate(222 270)"><path d="M0 -11L8.6 -6.9L10.7 2.4L4.8 9.9L-4.8 9.9L-10.7 2.4L-8.6 -6.9Z" stroke="#297EA6" fill="none" stroke-width="1"></path></g><g transform="translate(739 292)"><path d="M0 -4L3.1 -2.5L3.9 0.9L1.7 3.6L-1.7 3.6L-3.9 0.9L-3.1 -2.5Z" stroke="#297EA6" fill="none" stroke-width="1"></path></g><g transform="translate(336 207)"><path d="M0 -7L5.5 -4.4L6.8 1.6L3 6.3L-3 6.3L-6.8 1.6L-5.5 -4.4Z" stroke="#297EA6" fill="none" stroke-width="1"></path></g><g transform="translate(271 31)"><path d="M0 -1L0.8 -0.6L1 0.2L0.4 0.9L-0.4 0.9L-1 0.2L-0.8 -0.6Z" stroke="#297EA6" fill="none" stroke-width="1"></path></g><g transform="translate(645 9)"><path d="M0 -4L3.1 -2.5L3.9 0.9L1.7 3.6L-1.7 3.6L-3.9 0.9L-3.1 -2.5Z" stroke="#297EA6" fill="none" stroke-width="1"></path></g><g transform="translate(8 103)"><path d="M0 -5L3.9 -3.1L4.9 1.1L2.2 4.5L-2.2 4.5L-4.9 1.1L-3.9 -3.1Z" stroke="#297EA6" fill="none" stroke-width="1"></path></g><g transform="translate(168 434)"><path d="M0 -6L4.7 -3.7L5.8 1.3L2.6 5.4L-2.6 5.4L-5.8 1.3L-4.7 -3.7Z" stroke="#297EA6" fill="none" stroke-width="1"></path></g><g transform="translate(933 534)"><path d="M0 -3L2.3 -1.9L2.9 0.7L1.3 2.7L-1.3 2.7L-2.9 0.7L-2.3 -1.9Z" stroke="#297EA6" fill="none" stroke-width="1"></path></g><g transform="translate(142 331)"><path d="M0 -4L3.1 -2.5L3.9 0.9L1.7 3.6L-1.7 3.6L-3.9 0.9L-3.1 -2.5Z" stroke="#297EA6" fill="none" stroke-width="1"></path></g><g transform="translate(331 370)"><path d="M0 -10L7.8 -6.2L9.7 2.2L4.3 9L-4.3 9L-9.7 2.2L-7.8 -6.2Z" stroke="#297EA6" fill="none" stroke-width="1"></path></g><g transform="translate(77 63)"><path d="M0 -11L8.6 -6.9L10.7 2.4L4.8 9.9L-4.8 9.9L-10.7 2.4L-8.6 -6.9Z" stroke="#297EA6" fill="none" stroke-width="1"></path></g><g transform="translate(748 15)"><path d="M0 -1L0.8 -0.6L1 0.2L0.4 0.9L-0.4 0.9L-1 0.2L-0.8 -0.6Z" stroke="#297EA6" fill="none" stroke-width="1"></path></g><g transform="translate(346 451)"><path d="M0 -7L5.5 -4.4L6.8 1.6L3 6.3L-3 6.3L-6.8 1.6L-5.5 -4.4Z" stroke="#297EA6" fill="none" stroke-width="1"></path></g><g transform="translate(923 147)"><path d="M0 -4L3.1 -2.5L3.9 0.9L1.7 3.6L-1.7 3.6L-3.9 0.9L-3.1 -2.5Z" stroke="#297EA6" fill="none" stroke-width="1"></path></g><g transform="translate(798 131)"><path d="M0 -7L5.5 -4.4L6.8 1.6L3 6.3L-3 6.3L-6.8 1.6L-5.5 -4.4Z" stroke="#297EA6" fill="none" stroke-width="1"></path></g><g transform="translate(424 446)"><path d="M0 -5L3.9 -3.1L4.9 1.1L2.2 4.5L-2.2 4.5L-4.9 1.1L-3.9 -3.1Z" stroke="#297EA6" fill="none" stroke-width="1"></path></g><g transform="translate(309 125)"><path d="M0 -9L7 -5.6L8.8 2L3.9 8.1L-3.9 8.1L-8.8 2L-7 -5.6Z" stroke="#297EA6" fill="none" stroke-width="1"></path></g><g transform="translate(861 114)"><path d="M0 -8L6.3 -5L7.8 1.8L3.5 7.2L-3.5 7.2L-7.8 1.8L-6.3 -5Z" stroke="#297EA6" fill="none" stroke-width="1"></path></g><g transform="translate(51 533)"><path d="M0 -7L5.5 -4.4L6.8 1.6L3 6.3L-3 6.3L-6.8 1.6L-5.5 -4.4Z" stroke="#297EA6" fill="none" stroke-width="1"></path></g><g transform="translate(423 516)"><path d="M0 -7L5.5 -4.4L6.8 1.6L3 6.3L-3 6.3L-6.8 1.6L-5.5 -4.4Z" stroke="#297EA6" fill="none" stroke-width="1"></path></g><g transform="translate(498 324)"><path d="M0 -10L7.8 -6.2L9.7 2.2L4.3 9L-4.3 9L-9.7 2.2L-7.8 -6.2Z" stroke="#297EA6" fill="none" stroke-width="1"></path></g><g transform="translate(913 413)"><path d="M0 -6L4.7 -3.7L5.8 1.3L2.6 5.4L-2.6 5.4L-5.8 1.3L-4.7 -3.7Z" stroke="#297EA6" fill="none" stroke-width="1"></path></g><g transform="translate(443 255)"><path d="M0 -8L6.3 -5L7.8 1.8L3.5 7.2L-3.5 7.2L-7.8 1.8L-6.3 -5Z" stroke="#297EA6" fill="none" stroke-width="1"></path></g><g transform="translate(714 308)"><path d="M0 -1L0.8 -0.6L1 0.2L0.4 0.9L-0.4 0.9L-1 0.2L-0.8 -0.6Z" stroke="#297EA6" fill="none" stroke-width="1"></path></g><g transform="translate(786 422)"><path d="M0 -1L0.8 -0.6L1 0.2L0.4 0.9L-0.4 0.9L-1 0.2L-0.8 -0.6Z" stroke="#297EA6" fill="none" stroke-width="1"></path></g><g transform="translate(577 96)"><path d="M0 -3L2.3 -1.9L2.9 0.7L1.3 2.7L-1.3 2.7L-2.9 0.7L-2.3 -1.9Z" stroke="#297EA6" fill="none" stroke-width="1"></path></g><g transform="translate(839 231)"><path d="M0 -2L1.6 -1.2L1.9 0.4L0.9 1.8L-0.9 1.8L-1.9 0.4L-1.6 -1.2Z" stroke="#297EA6" fill="none" stroke-width="1"></path></g><g transform="translate(854 412)"><path d="M0 -1L0.8 -0.6L1 0.2L0.4 0.9L-0.4 0.9L-1 0.2L-0.8 -0.6Z" stroke="#297EA6" fill="none" stroke-width="1"></path></g><g transform="translate(674 124)"><path d="M0 -1L0.8 -0.6L1 0.2L0.4 0.9L-0.4 0.9L-1 0.2L-0.8 -0.6Z" stroke="#297EA6" fill="none" stroke-width="1"></path></g><g transform="translate(473 19)"><path d="M0 -2L1.6 -1.2L1.9 0.4L0.9 1.8L-0.9 1.8L-1.9 0.4L-1.6 -1.2Z" stroke="#297EA6" fill="none" stroke-width="1"></path></g><g transform="translate(694 167)"><path d="M0 -8L6.3 -5L7.8 1.8L3.5 7.2L-3.5 7.2L-7.8 1.8L-6.3 -5Z" stroke="#297EA6" fill="none" stroke-width="1"></path></g><g transform="translate(812 205)"><path d="M0 -2L1.6 -1.2L1.9 0.4L0.9 1.8L-0.9 1.8L-1.9 0.4L-1.6 -1.2Z" stroke="#297EA6" fill="none" stroke-width="1"></path></g><g transform="translate(278 130)"><path d="M0 -3L2.3 -1.9L2.9 0.7L1.3 2.7L-1.3 2.7L-2.9 0.7L-2.3 -1.9Z" stroke="#297EA6" fill="none" stroke-width="1"></path></g><g transform="translate(763 497)"><path d="M0 -3L2.3 -1.9L2.9 0.7L1.3 2.7L-1.3 2.7L-2.9 0.7L-2.3 -1.9Z" stroke="#297EA6" fill="none" stroke-width="1"></path></g><g transform="translate(801 95)"><path d="M0 -9L7 -5.6L8.8 2L3.9 8.1L-3.9 8.1L-8.8 2L-7 -5.6Z" stroke="#297EA6" fill="none" stroke-width="1"></path></g><g transform="translate(121 220)"><path d="M0 -11L8.6 -6.9L10.7 2.4L4.8 9.9L-4.8 9.9L-10.7 2.4L-8.6 -6.9Z" stroke="#297EA6" fill="none" stroke-width="1"></path></g><g transform="translate(329 477)"><path d="M0 -11L8.6 -6.9L10.7 2.4L4.8 9.9L-4.8 9.9L-10.7 2.4L-8.6 -6.9Z" stroke="#297EA6" fill="none" stroke-width="1"></path></g><g transform="translate(170 55)"><path d="M0 -3L2.3 -1.9L2.9 0.7L1.3 2.7L-1.3 2.7L-2.9 0.7L-2.3 -1.9Z" stroke="#297EA6" fill="none" stroke-width="1"></path></g><g transform="translate(212 65)"><path d="M0 -6L4.7 -3.7L5.8 1.3L2.6 5.4L-2.6 5.4L-5.8 1.3L-4.7 -3.7Z" stroke="#297EA6" fill="none" stroke-width="1"></path></g><g transform="translate(274 248)"><path d="M0 -7L5.5 -4.4L6.8 1.6L3 6.3L-3 6.3L-6.8 1.6L-5.5 -4.4Z" stroke="#297EA6" fill="none" stroke-width="1"></path></g><g transform="translate(221 330)"><path d="M0 -6L4.7 -3.7L5.8 1.3L2.6 5.4L-2.6 5.4L-5.8 1.3L-4.7 -3.7Z" stroke="#297EA6" fill="none" stroke-width="1"></path></g><g transform="translate(580 226)"><path d="M0 -5L3.9 -3.1L4.9 1.1L2.2 4.5L-2.2 4.5L-4.9 1.1L-3.9 -3.1Z" stroke="#297EA6" fill="none" stroke-width="1"></path></g><g transform="translate(363 353)"><path d="M0 -2L1.6 -1.2L1.9 0.4L0.9 1.8L-0.9 1.8L-1.9 0.4L-1.6 -1.2Z" stroke="#297EA6" fill="none" stroke-width="1"></path></g><g transform="translate(469 478)"><path d="M0 -10L7.8 -6.2L9.7 2.2L4.3 9L-4.3 9L-9.7 2.2L-7.8 -6.2Z" stroke="#297EA6" fill="none" stroke-width="1"></path></g><g transform="translate(555 422)"><path d="M0 -4L3.1 -2.5L3.9 0.9L1.7 3.6L-1.7 3.6L-3.9 0.9L-3.1 -2.5Z" stroke="#297EA6" fill="none" stroke-width="1"></path></g><g transform="translate(808 363)"><path d="M0 -4L3.1 -2.5L3.9 0.9L1.7 3.6L-1.7 3.6L-3.9 0.9L-3.1 -2.5Z" stroke="#297EA6" fill="none" stroke-width="1"></path></g><g transform="translate(492 357)"><path d="M0 -10L7.8 -6.2L9.7 2.2L4.3 9L-4.3 9L-9.7 2.2L-7.8 -6.2Z" stroke="#297EA6" fill="none" stroke-width="1"></path></g><g transform="translate(600 387)"><path d="M0 -10L7.8 -6.2L9.7 2.2L4.3 9L-4.3 9L-9.7 2.2L-7.8 -6.2Z" stroke="#297EA6" fill="none" stroke-width="1"></path></g><g transform="translate(764 144)"><path d="M0 -6L4.7 -3.7L5.8 1.3L2.6 5.4L-2.6 5.4L-5.8 1.3L-4.7 -3.7Z" stroke="#297EA6" fill="none" stroke-width="1"></path></g><g transform="translate(748 422)"><path d="M0 -1L0.8 -0.6L1 0.2L0.4 0.9L-0.4 0.9L-1 0.2L-0.8 -0.6Z" stroke="#297EA6" fill="none" stroke-width="1"></path></g><g transform="translate(198 507)"><path d="M0 -10L7.8 -6.2L9.7 2.2L4.3 9L-4.3 9L-9.7 2.2L-7.8 -6.2Z" stroke="#297EA6" fill="none" stroke-width="1"></path></g><g transform="translate(462 46)"><path d="M0 -3L2.3 -1.9L2.9 0.7L1.3 2.7L-1.3 2.7L-2.9 0.7L-2.3 -1.9Z" stroke="#297EA6" fill="none" stroke-width="1"></path></g><g transform="translate(881 344)"><path d="M0 -5L3.9 -3.1L4.9 1.1L2.2 4.5L-2.2 4.5L-4.9 1.1L-3.9 -3.1Z" stroke="#297EA6" fill="none" stroke-width="1"></path></g><g transform="translate(54 326)"><path d="M0 -3L2.3 -1.9L2.9 0.7L1.3 2.7L-1.3 2.7L-2.9 0.7L-2.3 -1.9Z" stroke="#297EA6" fill="none" stroke-width="1"></path></g><g transform="translate(278 1)"><path d="M0 -10L7.8 -6.2L9.7 2.2L4.3 9L-4.3 9L-9.7 2.2L-7.8 -6.2Z" stroke="#297EA6" fill="none" stroke-width="1"></path></g><g transform="translate(615 349)"><path d="M0 -6L4.7 -3.7L5.8 1.3L2.6 5.4L-2.6 5.4L-5.8 1.3L-4.7 -3.7Z" stroke="#297EA6" fill="none" stroke-width="1"></path></g><g transform="translate(383 381)"><path d="M0 -8L6.3 -5L7.8 1.8L3.5 7.2L-3.5 7.2L-7.8 1.8L-6.3 -5Z" stroke="#297EA6" fill="none" stroke-width="1"></path></g><g transform="translate(569 493)"><path d="M0 -4L3.1 -2.5L3.9 0.9L1.7 3.6L-1.7 3.6L-3.9 0.9L-3.1 -2.5Z" stroke="#297EA6" fill="none" stroke-width="1"></path></g><g transform="translate(958 201)"><path d="M0 -8L6.3 -5L7.8 1.8L3.5 7.2L-3.5 7.2L-7.8 1.8L-6.3 -5Z" stroke="#297EA6" fill="none" stroke-width="1"></path></g><g transform="translate(349 6)"><path d="M0 -8L6.3 -5L7.8 1.8L3.5 7.2L-3.5 7.2L-7.8 1.8L-6.3 -5Z" stroke="#297EA6" fill="none" stroke-width="1"></path></g><g transform="translate(538 266)"><path d="M0 -1L0.8 -0.6L1 0.2L0.4 0.9L-0.4 0.9L-1 0.2L-0.8 -0.6Z" stroke="#297EA6" fill="none" stroke-width="1"></path></g><g transform="translate(483 82)"><path d="M0 -4L3.1 -2.5L3.9 0.9L1.7 3.6L-1.7 3.6L-3.9 0.9L-3.1 -2.5Z" stroke="#297EA6" fill="none" stroke-width="1"></path></g><g transform="translate(76 354)"><path d="M0 -6L4.7 -3.7L5.8 1.3L2.6 5.4L-2.6 5.4L-5.8 1.3L-4.7 -3.7Z" stroke="#297EA6" fill="none" stroke-width="1"></path></g><g transform="translate(62 185)"><path d="M0 -2L1.6 -1.2L1.9 0.4L0.9 1.8L-0.9 1.8L-1.9 0.4L-1.6 -1.2Z" stroke="#297EA6" fill="none" stroke-width="1"></path></g><g transform="translate(651 56)"><path d="M0 -6L4.7 -3.7L5.8 1.3L2.6 5.4L-2.6 5.4L-5.8 1.3L-4.7 -3.7Z" stroke="#297EA6" fill="none" stroke-width="1"></path></g><g transform="translate(645 142)"><path d="M0 -11L8.6 -6.9L10.7 2.4L4.8 9.9L-4.8 9.9L-10.7 2.4L-8.6 -6.9Z" stroke="#297EA6" fill="none" stroke-width="1"></path></g><g transform="translate(610 12)"><path d="M0 -3L2.3 -1.9L2.9 0.7L1.3 2.7L-1.3 2.7L-2.9 0.7L-2.3 -1.9Z" stroke="#297EA6" fill="none" stroke-width="1"></path></g><g transform="translate(120 390)"><path d="M0 -7L5.5 -4.4L6.8 1.6L3 6.3L-3 6.3L-6.8 1.6L-5.5 -4.4Z" stroke="#297EA6" fill="none" stroke-width="1"></path></g><g transform="translate(84 436)"><path d="M0 -10L7.8 -6.2L9.7 2.2L4.3 9L-4.3 9L-9.7 2.2L-7.8 -6.2Z" stroke="#297EA6" fill="none" stroke-width="1"></path></g><g transform="translate(547 458)"><path d="M0 -3L2.3 -1.9L2.9 0.7L1.3 2.7L-1.3 2.7L-2.9 0.7L-2.3 -1.9Z" stroke="#297EA6" fill="none" stroke-width="1"></path></g><g transform="translate(805 520)"><path d="M0 -9L7 -5.6L8.8 2L3.9 8.1L-3.9 8.1L-8.8 2L-7 -5.6Z" stroke="#297EA6" fill="none" stroke-width="1"></path></g><g transform="translate(884 401)"><path d="M0 -6L4.7 -3.7L5.8 1.3L2.6 5.4L-2.6 5.4L-5.8 1.3L-4.7 -3.7Z" stroke="#297EA6" fill="none" stroke-width="1"></path></g><g transform="translate(525 205)"><path d="M0 -9L7 -5.6L8.8 2L3.9 8.1L-3.9 8.1L-8.8 2L-7 -5.6Z" stroke="#297EA6" fill="none" stroke-width="1"></path></g><g transform="translate(602 535)"><path d="M0 -3L2.3 -1.9L2.9 0.7L1.3 2.7L-1.3 2.7L-2.9 0.7L-2.3 -1.9Z" stroke="#297EA6" fill="none" stroke-width="1"></path></g><g transform="translate(538 19)"><path d="M0 -7L5.5 -4.4L6.8 1.6L3 6.3L-3 6.3L-6.8 1.6L-5.5 -4.4Z" stroke="#297EA6" fill="none" stroke-width="1"></path></g><g transform="translate(896 191)"><path d="M0 -1L0.8 -0.6L1 0.2L0.4 0.9L-0.4 0.9L-1 0.2L-0.8 -0.6Z" stroke="#297EA6" fill="none" stroke-width="1"></path></g><g transform="translate(661 291)"><path d="M0 -8L6.3 -5L7.8 1.8L3.5 7.2L-3.5 7.2L-7.8 1.8L-6.3 -5Z" stroke="#297EA6" fill="none" stroke-width="1"></path></g><g transform="translate(74 140)"><path d="M0 -3L2.3 -1.9L2.9 0.7L1.3 2.7L-1.3 2.7L-2.9 0.7L-2.3 -1.9Z" stroke="#297EA6" fill="none" stroke-width="1"></path></g><g transform="translate(17 428)"><path d="M0 -7L5.5 -4.4L6.8 1.6L3 6.3L-3 6.3L-6.8 1.6L-5.5 -4.4Z" stroke="#297EA6" fill="none" stroke-width="1"></path></g><g transform="translate(414 11)"><path d="M0 -7L5.5 -4.4L6.8 1.6L3 6.3L-3 6.3L-6.8 1.6L-5.5 -4.4Z" stroke="#297EA6" fill="none" stroke-width="1"></path></g><g transform="translate(478 405)"><path d="M0 -6L4.7 -3.7L5.8 1.3L2.6 5.4L-2.6 5.4L-5.8 1.3L-4.7 -3.7Z" stroke="#297EA6" fill="none" stroke-width="1"></path></g><g transform="translate(901 362)"><path d="M0 -1L0.8 -0.6L1 0.2L0.4 0.9L-0.4 0.9L-1 0.2L-0.8 -0.6Z" stroke="#297EA6" fill="none" stroke-width="1"></path></g><g transform="translate(53 50)"><path d="M0 -5L3.9 -3.1L4.9 1.1L2.2 4.5L-2.2 4.5L-4.9 1.1L-3.9 -3.1Z" stroke="#297EA6" fill="none" stroke-width="1"></path></g><g transform="translate(534 133)"><path d="M0 -2L1.6 -1.2L1.9 0.4L0.9 1.8L-0.9 1.8L-1.9 0.4L-1.6 -1.2Z" stroke="#297EA6" fill="none" stroke-width="1"></path></g><g transform="translate(334 426)"><path d="M0 -5L3.9 -3.1L4.9 1.1L2.2 4.5L-2.2 4.5L-4.9 1.1L-3.9 -3.1Z" stroke="#297EA6" fill="none" stroke-width="1"></path></g><g transform="translate(236 471)"><path d="M0 -4L3.1 -2.5L3.9 0.9L1.7 3.6L-1.7 3.6L-3.9 0.9L-3.1 -2.5Z" stroke="#297EA6" fill="none" stroke-width="1"></path></g><g transform="translate(148 453)"><path d="M0 -6L4.7 -3.7L5.8 1.3L2.6 5.4L-2.6 5.4L-5.8 1.3L-4.7 -3.7Z" stroke="#297EA6" fill="none" stroke-width="1"></path></g><g transform="translate(781 167)"><path d="M0 -11L8.6 -6.9L10.7 2.4L4.8 9.9L-4.8 9.9L-10.7 2.4L-8.6 -6.9Z" stroke="#297EA6" fill="none" stroke-width="1"></path></g><g transform="translate(816 290)"><path d="M0 -8L6.3 -5L7.8 1.8L3.5 7.2L-3.5 7.2L-7.8 1.8L-6.3 -5Z" stroke="#297EA6" fill="none" stroke-width="1"></path></g><g transform="translate(849 329)"><path d="M0 -10L7.8 -6.2L9.7 2.2L4.3 9L-4.3 9L-9.7 2.2L-7.8 -6.2Z" stroke="#297EA6" fill="none" stroke-width="1"></path></g><g transform="translate(667 86)"><path d="M0 -2L1.6 -1.2L1.9 0.4L0.9 1.8L-0.9 1.8L-1.9 0.4L-1.6 -1.2Z" stroke="#297EA6" fill="none" stroke-width="1"></path></g><g transform="translate(434 330)"><path d="M0 -8L6.3 -5L7.8 1.8L3.5 7.2L-3.5 7.2L-7.8 1.8L-6.3 -5Z" stroke="#297EA6" fill="none" stroke-width="1"></path></g><g transform="translate(771 298)"><path d="M0 -5L3.9 -3.1L4.9 1.1L2.2 4.5L-2.2 4.5L-4.9 1.1L-3.9 -3.1Z" stroke="#297EA6" fill="none" stroke-width="1"></path></g><g transform="translate(583 173)"><path d="M0 -1L0.8 -0.6L1 0.2L0.4 0.9L-0.4 0.9L-1 0.2L-0.8 -0.6Z" stroke="#297EA6" fill="none" stroke-width="1"></path></g><g transform="translate(199 161)"><path d="M0 -7L5.5 -4.4L6.8 1.6L3 6.3L-3 6.3L-6.8 1.6L-5.5 -4.4Z" stroke="#297EA6" fill="none" stroke-width="1"></path></g><g transform="translate(289 458)"><path d="M0 -7L5.5 -4.4L6.8 1.6L3 6.3L-3 6.3L-6.8 1.6L-5.5 -4.4Z" stroke="#297EA6" fill="none" stroke-width="1"></path></g><g transform="translate(626 273)"><path d="M0 -7L5.5 -4.4L6.8 1.6L3 6.3L-3 6.3L-6.8 1.6L-5.5 -4.4Z" stroke="#297EA6" fill="none" stroke-width="1"></path></g><g transform="translate(360 263)"><path d="M0 -10L7.8 -6.2L9.7 2.2L4.3 9L-4.3 9L-9.7 2.2L-7.8 -6.2Z" stroke="#297EA6" fill="none" stroke-width="1"></path></g><g transform="translate(958 265)"><path d="M0 -10L7.8 -6.2L9.7 2.2L4.3 9L-4.3 9L-9.7 2.2L-7.8 -6.2Z" stroke="#297EA6" fill="none" stroke-width="1"></path></g><g transform="translate(185 380)"><path d="M0 -6L4.7 -3.7L5.8 1.3L2.6 5.4L-2.6 5.4L-5.8 1.3L-4.7 -3.7Z" stroke="#297EA6" fill="none" stroke-width="1"></path></g><g transform="translate(663 443)"><path d="M0 -5L3.9 -3.1L4.9 1.1L2.2 4.5L-2.2 4.5L-4.9 1.1L-3.9 -3.1Z" stroke="#297EA6" fill="none" stroke-width="1"></path></g><g transform="translate(263 187)"><path d="M0 -3L2.3 -1.9L2.9 0.7L1.3 2.7L-1.3 2.7L-2.9 0.7L-2.3 -1.9Z" stroke="#297EA6" fill="none" stroke-width="1"></path></g><g transform="translate(481 536)"><path d="M0 -2L1.6 -1.2L1.9 0.4L0.9 1.8L-0.9 1.8L-1.9 0.4L-1.6 -1.2Z" stroke="#297EA6" fill="none" stroke-width="1"></path></g><g transform="translate(414 273)"><path d="M0 -9L7 -5.6L8.8 2L3.9 8.1L-3.9 8.1L-8.8 2L-7 -5.6Z" stroke="#297EA6" fill="none" stroke-width="1"></path></g><g transform="translate(544 45)"><path d="M0 -7L5.5 -4.4L6.8 1.6L3 6.3L-3 6.3L-6.8 1.6L-5.5 -4.4Z" stroke="#297EA6" fill="none" stroke-width="1"></path></g><g transform="translate(739 198)"><path d="M0 -7L5.5 -4.4L6.8 1.6L3 6.3L-3 6.3L-6.8 1.6L-5.5 -4.4Z" stroke="#297EA6" fill="none" stroke-width="1"></path></g><g transform="translate(443 165)"><path d="M0 -7L5.5 -4.4L6.8 1.6L3 6.3L-3 6.3L-6.8 1.6L-5.5 -4.4Z" stroke="#297EA6" fill="none" stroke-width="1"></path></g><g transform="translate(763 35)"><path d="M0 -5L3.9 -3.1L4.9 1.1L2.2 4.5L-2.2 4.5L-4.9 1.1L-3.9 -3.1Z" stroke="#297EA6" fill="none" stroke-width="1"></path></g><g transform="translate(717 532)"><path d="M0 -11L8.6 -6.9L10.7 2.4L4.8 9.9L-4.8 9.9L-10.7 2.4L-8.6 -6.9Z" stroke="#297EA6" fill="none" stroke-width="1"></path></g><g transform="translate(122 362)"><path d="M0 -10L7.8 -6.2L9.7 2.2L4.3 9L-4.3 9L-9.7 2.2L-7.8 -6.2Z" stroke="#297EA6" fill="none" stroke-width="1"></path></g><g transform="translate(336 297)"><path d="M0 -1L0.8 -0.6L1 0.2L0.4 0.9L-0.4 0.9L-1 0.2L-0.8 -0.6Z" stroke="#297EA6" fill="none" stroke-width="1"></path></g><g transform="translate(617 97)"><path d="M0 -5L3.9 -3.1L4.9 1.1L2.2 4.5L-2.2 4.5L-4.9 1.1L-3.9 -3.1Z" stroke="#297EA6" fill="none" stroke-width="1"></path></g><g transform="translate(374 39)"><path d="M0 -1L0.8 -0.6L1 0.2L0.4 0.9L-0.4 0.9L-1 0.2L-0.8 -0.6Z" stroke="#297EA6" fill="none" stroke-width="1"></path></g><g transform="translate(156 5)"><path d="M0 -3L2.3 -1.9L2.9 0.7L1.3 2.7L-1.3 2.7L-2.9 0.7L-2.3 -1.9Z" stroke="#297EA6" fill="none" stroke-width="1"></path></g><g transform="translate(303 29)"><path d="M0 -6L4.7 -3.7L5.8 1.3L2.6 5.4L-2.6 5.4L-5.8 1.3L-4.7 -3.7Z" stroke="#297EA6" fill="none" stroke-width="1"></path></g><g transform="translate(236 192)"><path d="M0 -9L7 -5.6L8.8 2L3.9 8.1L-3.9 8.1L-8.8 2L-7 -5.6Z" stroke="#297EA6" fill="none" stroke-width="1"></path></g><g transform="translate(78 535)"><path d="M0 -8L6.3 -5L7.8 1.8L3.5 7.2L-3.5 7.2L-7.8 1.8L-6.3 -5Z" stroke="#297EA6" fill="none" stroke-width="1"></path></g><g transform="translate(303 289)"><path d="M0 -3L2.3 -1.9L2.9 0.7L1.3 2.7L-1.3 2.7L-2.9 0.7L-2.3 -1.9Z" stroke="#297EA6" fill="none" stroke-width="1"></path></g><g transform="translate(253 450)"><path d="M0 -6L4.7 -3.7L5.8 1.3L2.6 5.4L-2.6 5.4L-5.8 1.3L-4.7 -3.7Z" stroke="#297EA6" fill="none" stroke-width="1"></path></g><g transform="translate(535 375)"><path d="M0 -3L2.3 -1.9L2.9 0.7L1.3 2.7L-1.3 2.7L-2.9 0.7L-2.3 -1.9Z" stroke="#297EA6" fill="none" stroke-width="1"></path></g><g transform="translate(193 332)"><path d="M0 -3L2.3 -1.9L2.9 0.7L1.3 2.7L-1.3 2.7L-2.9 0.7L-2.3 -1.9Z" stroke="#297EA6" fill="none" stroke-width="1"></path></g><g transform="translate(575 377)"><path d="M0 -2L1.6 -1.2L1.9 0.4L0.9 1.8L-0.9 1.8L-1.9 0.4L-1.6 -1.2Z" stroke="#297EA6" fill="none" stroke-width="1"></path></g><g transform="translate(329 537)"><path d="M0 -9L7 -5.6L8.8 2L3.9 8.1L-3.9 8.1L-8.8 2L-7 -5.6Z" stroke="#297EA6" fill="none" stroke-width="1"></path></g><g transform="translate(956 109)"><path d="M0 -5L3.9 -3.1L4.9 1.1L2.2 4.5L-2.2 4.5L-4.9 1.1L-3.9 -3.1Z" stroke="#297EA6" fill="none" stroke-width="1"></path></g><g transform="translate(328 106)"><path d="M0 -9L7 -5.6L8.8 2L3.9 8.1L-3.9 8.1L-8.8 2L-7 -5.6Z" stroke="#297EA6" fill="none" stroke-width="1"></path></g><g transform="translate(369 154)"><path d="M0 -11L8.6 -6.9L10.7 2.4L4.8 9.9L-4.8 9.9L-10.7 2.4L-8.6 -6.9Z" stroke="#297EA6" fill="none" stroke-width="1"></path></g><g transform="translate(920 78)"><path d="M0 -8L6.3 -5L7.8 1.8L3.5 7.2L-3.5 7.2L-7.8 1.8L-6.3 -5Z" stroke="#297EA6" fill="none" stroke-width="1"></path></g><g transform="translate(954 14)"><path d="M0 -5L3.9 -3.1L4.9 1.1L2.2 4.5L-2.2 4.5L-4.9 1.1L-3.9 -3.1Z" stroke="#297EA6" fill="none" stroke-width="1"></path></g><g transform="translate(586 347)"><path d="M0 -5L3.9 -3.1L4.9 1.1L2.2 4.5L-2.2 4.5L-4.9 1.1L-3.9 -3.1Z" stroke="#297EA6" fill="none" stroke-width="1"></path></g><g transform="translate(396 297)"><path d="M0 -5L3.9 -3.1L4.9 1.1L2.2 4.5L-2.2 4.5L-4.9 1.1L-3.9 -3.1Z" stroke="#297EA6" fill="none" stroke-width="1"></path></g><g transform="translate(297 344)"><path d="M0 -3L2.3 -1.9L2.9 0.7L1.3 2.7L-1.3 2.7L-2.9 0.7L-2.3 -1.9Z" stroke="#297EA6" fill="none" stroke-width="1"></path></g><g transform="translate(113 536)"><path d="M0 -8L6.3 -5L7.8 1.8L3.5 7.2L-3.5 7.2L-7.8 1.8L-6.3 -5Z" stroke="#297EA6" fill="none" stroke-width="1"></path></g><g transform="translate(13 2)"><path d="M0 -5L3.9 -3.1L4.9 1.1L2.2 4.5L-2.2 4.5L-4.9 1.1L-3.9 -3.1Z" stroke="#297EA6" fill="none" stroke-width="1"></path></g><g transform="translate(744 55)"><path d="M0 -9L7 -5.6L8.8 2L3.9 8.1L-3.9 8.1L-8.8 2L-7 -5.6Z" stroke="#297EA6" fill="none" stroke-width="1"></path></g><g transform="translate(855 444)"><path d="M0 -11L8.6 -6.9L10.7 2.4L4.8 9.9L-4.8 9.9L-10.7 2.4L-8.6 -6.9Z" stroke="#297EA6" fill="none" stroke-width="1"></path></g><g transform="translate(153 76)"><path d="M0 -3L2.3 -1.9L2.9 0.7L1.3 2.7L-1.3 2.7L-2.9 0.7L-2.3 -1.9Z" stroke="#297EA6" fill="none" stroke-width="1"></path></g><g transform="translate(72 484)"><path d="M0 -5L3.9 -3.1L4.9 1.1L2.2 4.5L-2.2 4.5L-4.9 1.1L-3.9 -3.1Z" stroke="#297EA6" fill="none" stroke-width="1"></path></g><g transform="translate(947 413)"><path d="M0 -9L7 -5.6L8.8 2L3.9 8.1L-3.9 8.1L-8.8 2L-7 -5.6Z" stroke="#297EA6" fill="none" stroke-width="1"></path></g><g transform="translate(739 318)"><path d="M0 -10L7.8 -6.2L9.7 2.2L4.3 9L-4.3 9L-9.7 2.2L-7.8 -6.2Z" stroke="#297EA6" fill="none" stroke-width="1"></path></g><g transform="translate(486 158)"><path d="M0 -4L3.1 -2.5L3.9 0.9L1.7 3.6L-1.7 3.6L-3.9 0.9L-3.1 -2.5Z" stroke="#297EA6" fill="none" stroke-width="1"></path></g><g transform="translate(861 141)"><path d="M0 -1L0.8 -0.6L1 0.2L0.4 0.9L-0.4 0.9L-1 0.2L-0.8 -0.6Z" stroke="#297EA6" fill="none" stroke-width="1"></path></g><g transform="translate(763 222)"><path d="M0 -11L8.6 -6.9L10.7 2.4L4.8 9.9L-4.8 9.9L-10.7 2.4L-8.6 -6.9Z" stroke="#297EA6" fill="none" stroke-width="1"></path></g><g transform="translate(888 33)"><path d="M0 -2L1.6 -1.2L1.9 0.4L0.9 1.8L-0.9 1.8L-1.9 0.4L-1.6 -1.2Z" stroke="#297EA6" fill="none" stroke-width="1"></path></g><g transform="translate(957 461)"><path d="M0 -10L7.8 -6.2L9.7 2.2L4.3 9L-4.3 9L-9.7 2.2L-7.8 -6.2Z" stroke="#297EA6" fill="none" stroke-width="1"></path></g><g transform="translate(59 273)"><path d="M0 -8L6.3 -5L7.8 1.8L3.5 7.2L-3.5 7.2L-7.8 1.8L-6.3 -5Z" stroke="#297EA6" fill="none" stroke-width="1"></path></g><g transform="translate(449 75)"><path d="M0 -2L1.6 -1.2L1.9 0.4L0.9 1.8L-0.9 1.8L-1.9 0.4L-1.6 -1.2Z" stroke="#297EA6" fill="none" stroke-width="1"></path></g><g transform="translate(29 515)"><path d="M0 -9L7 -5.6L8.8 2L3.9 8.1L-3.9 8.1L-8.8 2L-7 -5.6Z" stroke="#297EA6" fill="none" stroke-width="1"></path></g><g transform="translate(429 420)"><path d="M0 -7L5.5 -4.4L6.8 1.6L3 6.3L-3 6.3L-6.8 1.6L-5.5 -4.4Z" stroke="#297EA6" fill="none" stroke-width="1"></path></g><g transform="translate(71 458)"><path d="M0 -4L3.1 -2.5L3.9 0.9L1.7 3.6L-1.7 3.6L-3.9 0.9L-3.1 -2.5Z" stroke="#297EA6" fill="none" stroke-width="1"></path></g><g transform="translate(495 468)"><path d="M0 -8L6.3 -5L7.8 1.8L3.5 7.2L-3.5 7.2L-7.8 1.8L-6.3 -5Z" stroke="#297EA6" fill="none" stroke-width="1"></path></g><g transform="translate(94 226)"><path d="M0 -10L7.8 -6.2L9.7 2.2L4.3 9L-4.3 9L-9.7 2.2L-7.8 -6.2Z" stroke="#297EA6" fill="none" stroke-width="1"></path></g><g transform="translate(626 381)"><path d="M0 -5L3.9 -3.1L4.9 1.1L2.2 4.5L-2.2 4.5L-4.9 1.1L-3.9 -3.1Z" stroke="#297EA6" fill="none" stroke-width="1"></path></g><g transform="translate(526 536)"><path d="M0 -10L7.8 -6.2L9.7 2.2L4.3 9L-4.3 9L-9.7 2.2L-7.8 -6.2Z" stroke="#297EA6" fill="none" stroke-width="1"></path></g><g transform="translate(520 170)"><path d="M0 -1L0.8 -0.6L1 0.2L0.4 0.9L-0.4 0.9L-1 0.2L-0.8 -0.6Z" stroke="#297EA6" fill="none" stroke-width="1"></path></g><g transform="translate(850 521)"><path d="M0 -4L3.1 -2.5L3.9 0.9L1.7 3.6L-1.7 3.6L-3.9 0.9L-3.1 -2.5Z" stroke="#297EA6" fill="none" stroke-width="1"></path></g><g transform="translate(500 426)"><path d="M0 -2L1.6 -1.2L1.9 0.4L0.9 1.8L-0.9 1.8L-1.9 0.4L-1.6 -1.2Z" stroke="#297EA6" fill="none" stroke-width="1"></path></g><g transform="translate(620 514)"><path d="M0 -1L0.8 -0.6L1 0.2L0.4 0.9L-0.4 0.9L-1 0.2L-0.8 -0.6Z" stroke="#297EA6" fill="none" stroke-width="1"></path></g><g transform="translate(170 235)"><path d="M0 -6L4.7 -3.7L5.8 1.3L2.6 5.4L-2.6 5.4L-5.8 1.3L-4.7 -3.7Z" stroke="#297EA6" fill="none" stroke-width="1"></path></g><g transform="translate(710 223)"><path d="M0 -3L2.3 -1.9L2.9 0.7L1.3 2.7L-1.3 2.7L-2.9 0.7L-2.3 -1.9Z" stroke="#297EA6" fill="none" stroke-width="1"></path></g><g transform="translate(754 171)"><path d="M0 -9L7 -5.6L8.8 2L3.9 8.1L-3.9 8.1L-8.8 2L-7 -5.6Z" stroke="#297EA6" fill="none" stroke-width="1"></path></g><g transform="translate(78 2)"><path d="M0 -7L5.5 -4.4L6.8 1.6L3 6.3L-3 6.3L-6.8 1.6L-5.5 -4.4Z" stroke="#297EA6" fill="none" stroke-width="1"></path></g><g transform="translate(753 354)"><path d="M0 -5L3.9 -3.1L4.9 1.1L2.2 4.5L-2.2 4.5L-4.9 1.1L-3.9 -3.1Z" stroke="#297EA6" fill="none" stroke-width="1"></path></g><g transform="translate(2 489)"><path d="M0 -11L8.6 -6.9L10.7 2.4L4.8 9.9L-4.8 9.9L-10.7 2.4L-8.6 -6.9Z" stroke="#297EA6" fill="none" stroke-width="1"></path></g><g transform="translate(194 45)"><path d="M0 -5L3.9 -3.1L4.9 1.1L2.2 4.5L-2.2 4.5L-4.9 1.1L-3.9 -3.1Z" stroke="#297EA6" fill="none" stroke-width="1"></path></g><g transform="translate(558 3)"><path d="M0 -11L8.6 -6.9L10.7 2.4L4.8 9.9L-4.8 9.9L-10.7 2.4L-8.6 -6.9Z" stroke="#297EA6" fill="none" stroke-width="1"></path></g><g transform="translate(127 276)"><path d="M0 -1L0.8 -0.6L1 0.2L0.4 0.9L-0.4 0.9L-1 0.2L-0.8 -0.6Z" stroke="#297EA6" fill="none" stroke-width="1"></path></g><g transform="translate(930 1)"><path d="M0 -9L7 -5.6L8.8 2L3.9 8.1L-3.9 8.1L-8.8 2L-7 -5.6Z" stroke="#297EA6" fill="none" stroke-width="1"></path></g><g transform="translate(437 33)"><path d="M0 -11L8.6 -6.9L10.7 2.4L4.8 9.9L-4.8 9.9L-10.7 2.4L-8.6 -6.9Z" stroke="#297EA6" fill="none" stroke-width="1"></path></g><g transform="translate(445 194)"><path d="M0 -11L8.6 -6.9L10.7 2.4L4.8 9.9L-4.8 9.9L-10.7 2.4L-8.6 -6.9Z" stroke="#297EA6" fill="none" stroke-width="1"></path></g><g transform="translate(340 71)"><path d="M0 -9L7 -5.6L8.8 2L3.9 8.1L-3.9 8.1L-8.8 2L-7 -5.6Z" stroke="#297EA6" fill="none" stroke-width="1"></path></g><g transform="translate(448 501)"><path d="M0 -2L1.6 -1.2L1.9 0.4L0.9 1.8L-0.9 1.8L-1.9 0.4L-1.6 -1.2Z" stroke="#297EA6" fill="none" stroke-width="1"></path></g><g transform="translate(529 418)"><path d="M0 -4L3.1 -2.5L3.9 0.9L1.7 3.6L-1.7 3.6L-3.9 0.9L-3.1 -2.5Z" stroke="#297EA6" fill="none" stroke-width="1"></path></g><g transform="translate(542 329)"><path d="M0 -1L0.8 -0.6L1 0.2L0.4 0.9L-0.4 0.9L-1 0.2L-0.8 -0.6Z" stroke="#297EA6" fill="none" stroke-width="1"></path></g><g transform="translate(907 261)"><path d="M0 -4L3.1 -2.5L3.9 0.9L1.7 3.6L-1.7 3.6L-3.9 0.9L-3.1 -2.5Z" stroke="#297EA6" fill="none" stroke-width="1"></path></g><g transform="translate(116 163)"><path d="M0 -2L1.6 -1.2L1.9 0.4L0.9 1.8L-0.9 1.8L-1.9 0.4L-1.6 -1.2Z" stroke="#297EA6" fill="none" stroke-width="1"></path></g><g transform="translate(818 408)"><path d="M0 -11L8.6 -6.9L10.7 2.4L4.8 9.9L-4.8 9.9L-10.7 2.4L-8.6 -6.9Z" stroke="#297EA6" fill="none" stroke-width="1"></path></g><g transform="translate(507 116)"><path d="M0 -6L4.7 -3.7L5.8 1.3L2.6 5.4L-2.6 5.4L-5.8 1.3L-4.7 -3.7Z" stroke="#297EA6" fill="none" stroke-width="1"></path></g><g transform="translate(2 72)"><path d="M0 -11L8.6 -6.9L10.7 2.4L4.8 9.9L-4.8 9.9L-10.7 2.4L-8.6 -6.9Z" stroke="#297EA6" fill="none" stroke-width="1"></path></g><g transform="translate(442 396)"><path d="M0 -1L0.8 -0.6L1 0.2L0.4 0.9L-0.4 0.9L-1 0.2L-0.8 -0.6Z" stroke="#297EA6" fill="none" stroke-width="1"></path></g><g transform="translate(505 26)"><path d="M0 -8L6.3 -5L7.8 1.8L3.5 7.2L-3.5 7.2L-7.8 1.8L-6.3 -5Z" stroke="#297EA6" fill="none" stroke-width="1"></path></g></g></svg>