<svg id="visual" viewBox="0 0 900 600" width="900" height="600" xmlns="http://www.w3.org/2000/svg" xmlns:xlink="http://www.w3.org/1999/xlink" version="1.1"><g stroke-width="1" stroke-linejoin="bevel"><path d="M460 293L596 278L460 162Z" fill="#001e42" stroke="#001e42"></path><path d="M596 278L591 155L460 162Z" fill="#006894" stroke="#006894"></path><path d="M300 317L434 422L460 293Z" fill="#038fbf" stroke="#038fbf"></path><path d="M460 293L434 422L596 278Z" fill="#001e42" stroke="#001e42"></path><path d="M622 471L726 290L596 278Z" fill="#03a3d4" stroke="#03a3d4"></path><path d="M596 278L726 290L591 155Z" fill="#001e42" stroke="#001e42"></path><path d="M310 0L301 164L460 162Z" fill="#002f55" stroke="#002f55"></path><path d="M460 162L301 164L460 293Z" fill="#002f55" stroke="#002f55"></path><path d="M624 0L450 0L591 155Z" fill="#00416a" stroke="#00416a"></path><path d="M591 155L450 0L460 162Z" fill="#03a3d4" stroke="#03a3d4"></path><path d="M301 164L300 317L460 293Z" fill="#04b8ea" stroke="#04b8ea"></path><path d="M723 0L624 0L591 155Z" fill="#001e42" stroke="#001e42"></path><path d="M434 422L622 471L596 278Z" fill="#03a3d4" stroke="#03a3d4"></path><path d="M726 290L776 131L591 155Z" fill="#002f55" stroke="#002f55"></path><path d="M300 317L314 446L434 422Z" fill="#03a3d4" stroke="#03a3d4"></path><path d="M434 422L478 600L622 471Z" fill="#00547f" stroke="#00547f"></path><path d="M776 131L723 0L591 155Z" fill="#027ba9" stroke="#027ba9"></path><path d="M450 0L310 0L460 162Z" fill="#06cdff" stroke="#06cdff"></path><path d="M622 471L767 475L726 290Z" fill="#03a3d4" stroke="#03a3d4"></path><path d="M726 290L900 315L776 131Z" fill="#04b8ea" stroke="#04b8ea"></path><path d="M310 0L172 149L301 164Z" fill="#001e42" stroke="#001e42"></path><path d="M301 164L129 281L300 317Z" fill="#06cdff" stroke="#06cdff"></path><path d="M300 317L164 456L314 446Z" fill="#00416a" stroke="#00416a"></path><path d="M314 446L478 600L434 422Z" fill="#04b8ea" stroke="#04b8ea"></path><path d="M622 471L778 600L767 475Z" fill="#006894" stroke="#006894"></path><path d="M478 600L596 600L622 471Z" fill="#000000" stroke="#000000"></path><path d="M767 475L900 315L726 290Z" fill="#00547f" stroke="#00547f"></path><path d="M776 131L900 0L723 0Z" fill="#002f55" stroke="#002f55"></path><path d="M900 315L900 129L776 131Z" fill="#00547f" stroke="#00547f"></path><path d="M172 149L129 281L301 164Z" fill="#038fbf" stroke="#038fbf"></path><path d="M314 446L299 600L478 600Z" fill="#001e42" stroke="#001e42"></path><path d="M129 281L164 456L300 317Z" fill="#04b8ea" stroke="#04b8ea"></path><path d="M164 456L299 600L314 446Z" fill="#001e42" stroke="#001e42"></path><path d="M767 475L900 441L900 315Z" fill="#03a3d4" stroke="#03a3d4"></path><path d="M900 600L900 441L767 475Z" fill="#001e42" stroke="#001e42"></path><path d="M310 0L150 0L172 149Z" fill="#00547f" stroke="#00547f"></path><path d="M0 127L0 271L129 281Z" fill="#006894" stroke="#006894"></path><path d="M900 129L900 0L776 131Z" fill="#027ba9" stroke="#027ba9"></path><path d="M596 600L778 600L622 471Z" fill="#04b8ea" stroke="#04b8ea"></path><path d="M0 600L173 600L164 456Z" fill="#027ba9" stroke="#027ba9"></path><path d="M164 456L173 600L299 600Z" fill="#027ba9" stroke="#027ba9"></path><path d="M0 127L129 281L172 149Z" fill="#04b8ea" stroke="#04b8ea"></path><path d="M129 281L0 428L164 456Z" fill="#000000" stroke="#000000"></path><path d="M778 600L900 600L767 475Z" fill="#06cdff" stroke="#06cdff"></path><path d="M150 0L0 127L172 149Z" fill="#04b8ea" stroke="#04b8ea"></path><path d="M0 271L0 428L129 281Z" fill="#038fbf" stroke="#038fbf"></path><path d="M150 0L0 0L0 127Z" fill="#06cdff" stroke="#06cdff"></path><path d="M0 428L0 600L164 456Z" fill="#00547f" stroke="#00547f"></path></g></svg>