<svg id="visual" viewBox="0 0 960 540" width="960" height="540" xmlns="http://www.w3.org/2000/svg" xmlns:xlink="http://www.w3.org/1999/xlink" version="1.1"><rect x="0" y="0" width="960" height="540" fill="#002233"></rect><path d="M0 382L40 388.5C80 395 160 408 240 420.2C320 432.3 400 443.7 480 463.3C560 483 640 511 720 517.7C800 524.3 880 509.7 920 502.3L960 495L960 541L920 541C880 541 800 541 720 541C640 541 560 541 480 541C400 541 320 541 240 541C160 541 80 541 40 541L0 541Z" fill="#0066FF" stroke-linecap="round" stroke-linejoin="miter"></path></svg>