<svg id="visual" viewBox="0 0 960 540" width="960" height="540" xmlns="http://www.w3.org/2000/svg" xmlns:xlink="http://www.w3.org/1999/xlink" version="1.1"><rect x="0" y="0" width="960" height="540" fill="#0e1b1b"></rect><path d="M0 499L42 499L42 447L83 447L83 457L125 457L125 346L167 346L167 505L209 505L209 468L250 468L250 525L292 525L292 408L334 408L334 435L376 435L376 519L417 519L417 368L459 368L459 431L501 431L501 431L543 431L543 373L584 373L584 354L626 354L626 520L668 520L668 522L710 522L710 428L751 428L751 471L793 471L793 509L835 509L835 440L877 440L877 369L918 369L918 408L960 408L960 518L960 541L960 541L918 541L918 541L877 541L877 541L835 541L835 541L793 541L793 541L751 541L751 541L710 541L710 541L668 541L668 541L626 541L626 541L584 541L584 541L543 541L543 541L501 541L501 541L459 541L459 541L417 541L417 541L376 541L376 541L334 541L334 541L292 541L292 541L250 541L250 541L209 541L209 541L167 541L167 541L125 541L125 541L83 541L83 541L42 541L42 541L0 541Z" fill="#24a7b5"></path><path d="M0 392L42 392L42 418L83 418L83 390L125 390L125 504L167 504L167 390L209 390L209 510L250 510L250 396L292 396L292 388L334 388L334 456L376 456L376 418L417 418L417 404L459 404L459 389L501 389L501 412L543 412L543 527L584 527L584 447L626 447L626 477L668 477L668 389L710 389L710 419L751 419L751 417L793 417L793 399L835 399L835 472L877 472L877 444L918 444L918 498L960 498L960 495L960 541L960 541L918 541L918 541L877 541L877 541L835 541L835 541L793 541L793 541L751 541L751 541L710 541L710 541L668 541L668 541L626 541L626 541L584 541L584 541L543 541L543 541L501 541L501 541L459 541L459 541L417 541L417 541L376 541L376 541L334 541L334 541L292 541L292 541L250 541L250 541L209 541L209 541L167 541L167 541L125 541L125 541L83 541L83 541L42 541L42 541L0 541Z" fill="#13d2db"></path><path d="M0 520L42 520L42 471L83 471L83 519L125 519L125 461L167 461L167 467L209 467L209 505L250 505L250 514L292 514L292 507L334 507L334 520L376 520L376 461L417 461L417 452L459 452L459 448L501 448L501 492L543 492L543 465L584 465L584 526L626 526L626 447L668 447L668 514L710 514L710 468L751 468L751 513L793 513L793 463L835 463L835 449L877 449L877 500L918 500L918 508L960 508L960 478L960 541L960 541L918 541L918 541L877 541L877 541L835 541L835 541L793 541L793 541L751 541L751 541L710 541L710 541L668 541L668 541L626 541L626 541L584 541L584 541L543 541L543 541L501 541L501 541L459 541L459 541L417 541L417 541L376 541L376 541L334 541L334 541L292 541L292 541L250 541L250 541L209 541L209 541L167 541L167 541L125 541L125 541L83 541L83 541L42 541L42 541L0 541Z" fill="#00ffff"></path></svg>